<?xml version="1.0" standalone="no"?><!DOCTYPE svg PUBLIC "-//W3C//DTD SVG 1.1//EN" "http://www.w3.org/Graphics/SVG/1.1/DTD/svg11.dtd"><svg t="1642148385952" class="icon" viewBox="0 0 1024 1024" version="1.1" xmlns="http://www.w3.org/2000/svg" p-id="14068" xmlns:xlink="http://www.w3.org/1999/xlink" width="200" height="200"><defs><style type="text/css"></style></defs><path d="M512.814 235.52a30.72 30.72 0 0 1 30.7 29.568l0.02 1.152v491.52a30.72 30.72 0 0 1-61.42 1.152l-0.015-1.152V266.24a30.72 30.72 0 0 1 30.72-30.72z" fill="#407FB4" p-id="14069"></path><path d="M398.93 152.356a30.72 30.72 0 0 1 42.511-0.896l0.937 0.896 70.436 70.44 70.436-70.44a30.72 30.72 0 0 1 42.511-0.896l0.937 0.896a30.72 30.72 0 0 1 0.896 42.511l-0.896 0.937-92.16 92.16a30.72 30.72 0 0 1-42.511 0.896l-0.937-0.896-92.16-92.16a30.72 30.72 0 0 1 0-43.448z m92.16 583.68a30.72 30.72 0 0 1 42.511-0.896l0.937 0.896 92.16 92.16a30.72 30.72 0 0 1-42.511 44.344l-0.937-0.896-70.436-70.44-70.436 70.44a30.72 30.72 0 0 1-42.511 0.896l-0.937-0.896a30.72 30.72 0 0 1-0.896-42.511l0.896-0.937 92.16-92.16zM273.377 373.76a30.72 30.72 0 0 1 40.91-11.827l1.054 0.583 425.666 245.76a30.72 30.72 0 0 1-29.66 53.791l-1.06-0.583-425.666-245.76a30.72 30.72 0 0 1-11.244-41.964z" fill="#407FB4" p-id="14070"></path><path d="M258.299 233.554a30.72 30.72 0 0 1 37.304 20.613l0.318 1.106 33.73 125.9a30.72 30.72 0 0 1-20.613 37.3l-1.111 0.323-125.89 33.73a30.72 30.72 0 0 1-17.01-59.028l1.107-0.318 96.215-25.784-25.774-96.22a30.72 30.72 0 0 1 20.613-37.305l1.11-0.317z m585.288 337.92a30.72 30.72 0 0 1 17.013 59.028l-1.11 0.318-96.216 25.779 25.78 96.225a30.72 30.72 0 0 1-20.619 37.305l-1.106 0.317a30.72 30.72 0 0 1-37.304-20.613l-0.317-1.106-33.731-125.9a30.72 30.72 0 0 1 20.613-37.3l1.106-0.323 125.89-33.73z m-133.3-208.958a30.72 30.72 0 0 1 31.755 52.583l-1.035 0.625-425.666 245.76a30.72 30.72 0 0 1-31.754-52.583l1.034-0.625 425.666-245.76z" fill="#407FB4" p-id="14071"></path><path d="M144.415 593.193a30.72 30.72 0 0 1 36.505-22l1.116 0.28 125.891 33.731a30.72 30.72 0 0 1 22 36.506l-0.276 1.121-33.73 125.896a30.72 30.72 0 0 1-59.623-14.787l0.277-1.116 25.774-96.225-96.215-25.78a30.72 30.72 0 0 1-21.996-36.505l0.277-1.121z m585.287-337.92a30.72 30.72 0 0 1 59.628 14.787l-0.277 1.116-25.779 96.22 96.215 25.784a30.72 30.72 0 0 1 22 36.506l-0.276 1.121a30.72 30.72 0 0 1-36.505 22l-1.121-0.28-125.891-33.731A30.72 30.72 0 0 1 695.7 382.29l0.277-1.121 33.73-125.896z" fill="#407FB4" p-id="14072"></path></svg>