<svg t="1612452332050" class="icon" viewBox="0 0 1024 1024" version="1.1" xmlns="http://www.w3.org/2000/svg" p-id="6826" width="400" height="400"><path d="M570.25536 875.12064h-0.02048a17.92 17.92 0 0 1-17.89952-17.94048l0.34304-305.53088c0.10752-36.44928 14.51008-71.88992 39.53152-97.25952l33.408-34.88256c1.41824-2.0736 3.072-4.10624 5.08416-6.27712l191.16544-198.71232c4.34688-4.30592 3.51232-6.3744 2.89792-7.8848-0.53248-1.29536-3.94752-8.17664-15.744-8.17664H212.67456c-11.84256 0-15.34976 6.9632-15.92832 8.36096-1.00864 2.35008-0.98816 4.4544 2.15552 7.64928l236.35968 239.63648c25.14944 25.5744 39.55712 61.0304 39.55712 97.29024l0.19456 158.35648a17.92 17.92 0 0 1-17.89952 17.94048h-0.02048a17.92 17.92 0 0 1-17.92-17.89952l-0.19456-158.37696c0-26.96192-10.66496-53.25312-29.25056-72.16128L173.37344 239.62624c-12.96896-13.16352-16.56832-30.65344-9.63072-46.78144 6.05184-14.5152 22.14912-30.22336 48.93184-30.22336h596.352c26.85952 0 42.89536 15.75936 48.94208 30.50496 6.63552 16.41984 2.76992 33.3568-10.5728 46.56128L656.74752 437.8624a15.3344 15.3344 0 0 0-1.7664 2.2272c-0.67072 1.08544-1.44896 2.0992-2.3296 3.01568l-34.7392 36.26496c-18.66752 18.93376-29.31712 45.2352-29.3888 72.35072l-0.34304 305.50016a17.93024 17.93024 0 0 1-17.92512 17.89952z" fill="#2c2c2c" p-id="6827"></path></svg>