<?xml version="1.0" standalone="no"?><!DOCTYPE svg PUBLIC "-//W3C//DTD SVG 1.1//EN" "http://www.w3.org/Graphics/SVG/1.1/DTD/svg11.dtd"><svg t="1612535333312" class="icon" viewBox="0 0 1024 1024" version="1.1" xmlns="http://www.w3.org/2000/svg" p-id="53986" xmlns:xlink="http://www.w3.org/1999/xlink" width="400" height="400"><defs><style type="text/css"></style></defs><path d="M511.997277 98.042553C259.722894 98.042553 54.465362 303.300085 54.465362 555.574468 54.465362 646.340085 81.089362 734.120851 131.417872 809.439319 141.44 824.472511 161.723915 828.416 176.757106 818.437447 191.768511 808.415319 195.777362 788.131404 185.755234 773.098213 142.638298 708.564426 119.827064 633.354894 119.827064 555.574468 119.827064 339.33617 295.758979 163.404255 511.997277 163.404255 728.235574 163.404255 904.167489 339.33617 904.167489 555.574468 904.167489 771.812766 728.235574 947.744681 511.997277 947.744681 433.977191 947.744681 358.549787 924.824511 293.907064 881.489702 279.026383 871.489362 258.677106 875.454638 248.56783 890.444255 238.523915 905.433872 242.532766 925.717787 257.522383 935.783489 332.949787 986.35166 420.948426 1013.106383 511.997277 1013.106383 764.27166 1013.106383 969.529191 807.848851 969.529191 555.574468 969.529191 303.300085 764.27166 98.042553 511.997277 98.042553ZM512.295762 250.553191C494.255932 250.553191 479.614911 265.194213 479.614911 283.234043L479.614911 566.468085C479.614911 580.237617 488.242655 592.50383 501.162485 597.188085 504.800953 598.517106 508.570145 599.148936 512.295762 599.148936 521.816783 599.148936 531.05457 594.987574 537.394655 587.38383L646.330826 456.660426C657.899847 442.803745 656.026145 422.193021 642.147677 410.645787 628.290996 399.098553 607.70206 400.928681 596.133038 414.828936L544.976613 476.181787 544.976613 283.234043C544.976613 265.194213 530.335591 250.553191 512.295762 250.553191ZM435.741957 65.361702 588.252596 65.361702C606.292426 65.361702 620.933447 50.720681 620.933447 32.680851 620.933447 14.641021 606.292426 0 588.252596 0L435.741957 0C417.702128 0 403.061106 14.641021 403.061106 32.680851 403.061106 50.720681 417.702128 65.361702 435.741957 65.361702ZM913.742979 230.084085C920.126638 236.467745 928.492936 239.648681 936.859234 239.648681 945.203745 239.648681 953.570043 236.467745 959.953702 230.084085 972.721021 217.316766 972.721021 196.640681 959.953702 183.873362L894.592 118.51166C881.824681 105.74434 861.148596 105.74434 848.381277 118.51166 835.613957 131.278979 835.613957 151.955064 848.381277 164.722383L913.742979 230.084085Z" fill="#515151" p-id="53987"></path></svg>