<?xml version="1.0" standalone="no"?><!DOCTYPE svg PUBLIC "-//W3C//DTD SVG 1.1//EN" "http://www.w3.org/Graphics/SVG/1.1/DTD/svg11.dtd"><svg t="1609490046797" class="icon" viewBox="0 0 1706 1024" version="1.1" xmlns="http://www.w3.org/2000/svg" p-id="3239" width="666.40625" height="400" xmlns:xlink="http://www.w3.org/1999/xlink"><defs><style type="text/css"></style></defs><path d="M801.601376 512.026341c0 18.197688 9.708444 35.010605 25.467732 44.109449a50.935464 50.935464 0 0 0 50.935463 0 50.932453 50.932453 0 0 0 25.467732-44.109449c0-28.131909-22.803554-50.935464-50.935463-50.935464-28.131909 0-50.935464 22.803554-50.935464 50.935464z m0 0" fill="#9CA2C0" p-id="3240"></path><path d="M876.559594 274.447925h-7.044267v7.044266l7.044267-7.044266z m-41.001242 0h-7.044267l7.044267 7.044266v-7.044266zM672.516702 356.028957l-4.937007 4.997215h9.934221l-4.997214-4.997215z m29.019969-28.959761l-4.997215 4.937007 4.997215 4.997215v-9.934222zM614.958424 488.003587v7.044266h7.044266l-7.044266-7.044266z m0 41.001242v7.044266l7.044266-7.044266h-7.044266z m81.581032 163.041649l4.997215 4.937008v-9.934222l-4.997215 4.997214z m-28.959761-29.019968l4.937007 4.997214 4.997214-4.997214h-9.934221z m201.935632 86.578247h7.044267l-7.044267-7.044267v7.044267z m-41.001242 0h7.044267v-7.044267l-7.044267 7.044267zM1032.556977 668.023724l4.937007-4.997214h-9.934221l4.997214 4.997214z m-29.019968 28.959762l4.997214-4.937008-4.997214-4.997214v9.934222z m86.578246-201.935633v-7.044266l-7.044266 7.044266h7.044266z m0 41.001242v-7.044266h-7.044266l7.044266 7.044266z m0 0" fill="#9CA2C0" p-id="3241"></path><path d="M1141.050719 495.047853h-57.97973l7.044266-7.044266 11.981274-11.981274c6.622814-6.622814 6.622814-17.39994 0-24.022754s-17.39994-6.622814-24.022754 0l-43.048294 43.048294h-97.656409c-0.541867 0-1.143941 0-1.685808 0.060207-2.227674-10.89754-6.5024-21.012384-12.462932-29.92308 0.421452-0.361244 0.842904-0.722489 1.264355-1.14394l69.057893-69.057892h60.869685c9.392355 0 16.978488-7.586133 16.978488-16.978488 0-9.392355-7.586133-16.978488-16.978488-16.978488h-26.91271l41.001242-41.001242c6.622814-6.622814 6.622814-17.39994 0-24.022755s-17.39994-6.622814-24.022754 0l-35.94382 36.004028-4.997214 4.997215v-26.91271c0-9.392355-7.586133-16.978488-16.978488-16.978488s-16.978488 7.586133-16.978488 16.978488v60.869685l-69.057893 69.057893c-0.421452 0.421452-0.782696 0.842904-1.14394 1.264355a84.897708 84.897708 0 0 0-29.92308-12.462932c0.060207-0.541867 0.060207-1.143941 0.060207-1.685808V329.477492l43.048294-43.048294c6.622814-6.622814 6.622814-17.39994 0-24.022754s-17.39994-6.622814-24.022754 0l-19.02554 19.02554v-57.919523c0-9.392355-7.586133-16.978488-16.978487-16.978488-9.392355 0-16.978488 7.586133-16.978488 16.978488v57.97973l-7.044267-7.044266-11.981273-11.981274c-6.622814-6.622814-17.39994-6.622814-24.022754 0s-6.622814 17.39994 0 24.022755l43.048294 43.048293v97.716617c0 0.541867 0 1.143941 0.060207 1.685807-10.89754 2.227674-21.012384 6.5024-29.92308 12.462933-0.361244-0.421452-0.722489-0.842904-1.14394-1.264356l-69.1181-69.178307v-60.869685c0-9.392355-7.586133-16.978488-16.978488-16.978488-9.392355 0-16.978488 7.586133-16.978488 16.978488v26.91271l-41.001242-41.001243c-6.622814-6.622814-17.39994-6.622814-24.022754 0s-6.622814 17.39994 0 24.022755l41.001242 41.001242H650.540999c-9.392355 0-16.978488 7.586133-16.978488 16.978488 0 9.392355 7.586133 16.978488 16.978488 16.978488h60.869686l69.057892 69.057892c0.421452 0.421452 0.842904 0.782696 1.264356 1.14394a84.897708 84.897708 0 0 0-12.462933 29.92308c-0.541867-0.060207-1.143941-0.060207-1.685807-0.060207H669.987991l-43.048294-43.048294c-6.622814-6.622814-17.39994-6.622814-24.022754 0s-6.622814 17.39994 0 24.022754l19.02554 19.02554h-57.919523c-9.392355 0-16.978488 7.586133-16.978488 16.978488 0 9.392355 7.586133 16.978488 16.978488 16.978488h57.97973l-7.044266 7.044266-11.981274 11.981273c-6.622814 6.622814-6.622814 17.39994 0 24.022754 3.311407 3.311407 7.64634 4.997215 11.981274 4.997215s8.669866-1.685807 11.981273-4.997215l43.048294-43.048293h97.716616c0.541867 0 1.143941 0 1.685808-0.060208 2.227674 10.89754 6.5024 21.012384 12.462932 29.92308-0.421452 0.361244-0.842904 0.722489-1.264355 1.143941l-69.1181 69.118099h-60.869685c-9.392355 0-16.978488 7.586133-16.978488 16.978488 0 9.392355 7.586133 16.978488 16.978488 16.978488h26.912709l-41.001242 41.001242c-6.622814 6.622814-6.622814 17.39994 0 24.022754 3.311407 3.311407 7.64634 4.997215 11.981274 4.997215s8.669866-1.685807 11.981273-4.997215l41.001242-41.001242v26.91271c0 9.392355 7.586133 16.978488 16.978488 16.978488 9.392355 0 16.978488-7.586133 16.978488-16.978488v-60.929893l69.057892-69.057892c0.421452-0.421452 0.782696-0.842904 1.143941-1.264356 8.970903 5.960533 19.085747 10.235259 29.92308 12.462933-0.060207 0.541867-0.060207 1.143941-0.060208 1.685807v97.716617l-43.048294 43.048294c-6.622814 6.622814-6.622814 17.39994 0 24.022754s17.39994 6.622814 24.022755 0l11.981273-11.981274 7.044266-7.044266v57.97973c0 9.392355 7.586133 16.978488 16.978488 16.978488 9.392355 0 16.978488-7.586133 16.978488-16.978488v-57.97973l19.02554 19.02554c3.311407 3.311407 7.64634 4.997215 11.981273 4.997214s8.669866-1.685807 11.981273-4.997214c6.622814-6.622814 6.622814-17.39994 0-24.022754l-43.048293-43.048294V596.858573c0-0.541867 0-1.143941-0.060208-1.685807 10.89754-2.227674 21.012384-6.5024 29.92308-12.462933 0.361244 0.421452 0.722489 0.842904 1.143941 1.264355l69.057892 69.057893v60.869685c0 9.392355 7.586133 16.978488 16.978488 16.978488 9.392355 0 16.978488-7.586133 16.978488-16.978488v-26.912709l41.001242 41.001242c3.311407 3.311407 7.64634 4.997215 11.981273 4.997214s8.669866-1.685807 11.981274-4.997214c6.622814-6.622814 6.622814-17.39994 0-24.022755l-35.823406-35.94382-4.997214-4.997214h26.912709c9.392355 0 16.978488-7.586133 16.978488-16.978488 0-9.392355-7.586133-16.978488-16.978488-16.978488h-60.869685l-69.057892-69.057892c-0.421452-0.421452-0.842904-0.782696-1.264356-1.143941 5.960533-8.970903 10.235259-19.085747 12.462933-29.92308 0.541867 0.060207 1.143941 0.060207 1.685807 0.060208h97.716617l43.048293 43.048293c3.311407 3.311407 7.64634 4.997215 11.981274 4.997215s8.669866-1.685807 11.981273-4.997215c6.622814-6.622814 6.622814-17.39994 0-24.022754l-19.025539-19.025539h57.97973c9.392355 0 16.978488-7.586133 16.978487-16.978488 0-9.392355-7.706548-16.978488-17.038695-16.978488z m-237.578416 16.978488c0 28.05665-22.818606 50.935464-50.935463 50.935463-28.116858 0-50.935464-22.818606-50.935464-50.935463 0-28.116858 22.818606-50.935464 50.935464-50.935464 28.116858 0 50.935464 22.878813 50.935463 50.935464z m0 0" p-id="3242" fill="#9CA2C0"></path><path d="M1037.493984 361.026172l-4.937007-4.997215-4.997214 4.997215h9.934221z m-28.959761-29.019969l-4.997214-4.937007v9.934222l4.997214-4.997215z m0 0" fill="#9CA2C0" p-id="3243"></path></svg>