<?xml version="1.0" standalone="no"?><!DOCTYPE svg PUBLIC "-//W3C//DTD SVG 1.1//EN" "http://www.w3.org/Graphics/SVG/1.1/DTD/svg11.dtd"><svg t="1612449674812" class="icon" viewBox="0 0 1092 1024" version="1.1" xmlns="http://www.w3.org/2000/svg" p-id="3363" xmlns:xlink="http://www.w3.org/1999/xlink" width="426.5625" height="400"><defs><style type="text/css"></style></defs><path d="M818.107733 0.273067v34.269866c0 6.826667 0 143.906133-27.374933 280.9856-54.818133 246.715733-164.522667 301.533867-246.715733 301.533867v171.349333c0 54.818133 47.9232 102.8096 102.8096 102.8096h137.0112c54.818133 0 102.8096-47.991467 102.8096-102.8096v-41.096533c-75.3664-13.7216-137.079467-82.261333-137.079467-164.522667a169.642667 169.642667 0 0 1 171.349333-171.349333A169.642667 169.642667 0 0 1 1092.266667 582.792533c0 82.261333-61.713067 150.801067-137.079467 164.522667v41.096533a169.642667 169.642667 0 0 1-171.349333 171.349334H646.826667a169.642667 169.642667 0 0 1-171.349334-171.349334v-171.349333c-67.447467 0-153.258667-36.864-212.309333-186.094933-12.9024-32.768 24.234667-142.677333 61.2352-37.956267 37.0688 104.6528 78.984533 155.511467 151.074133 155.511467h68.539734c102.8096 0 150.7328-137.079467 178.176-246.715734a1155.754667 1155.754667 0 0 0 27.374933-232.994133h-34.269867c-20.48 0-34.269867-13.653333-34.269866-34.269867 0-20.548267 13.7216-34.269867 34.269866-34.269866h102.8096zM920.917333 479.914667a102.8096 102.8096 0 1 0 0 205.6192 102.8096 102.8096 0 0 0 0-205.6192z" fill="#515151" p-id="3364"></path><path d="M0 207.0528v-46.762667h131.754667c10.8544 0 20.821333 6.007467 25.668266 15.496534l47.240534 92.296533L291.84 28.672c1.501867-5.3248 11.332267 18.773333 29.354667 72.362667L240.981333 315.733333a33.314133 33.314133 0 0 1-29.013333 23.893334 33.655467 33.655467 0 0 1-33.245867-17.885867l-58.7776-114.756267H0z" fill="#515151" p-id="3365"></path><path d="M291.84 28.672A33.450667 33.450667 0 0 1 325.632 4.573867c15.701333 0.682667 28.672 11.810133 31.5392 26.897066L429.397333 280.7808 525.789867 84.650667a33.450667 33.450667 0 0 1 29.4912-21.845334 33.655467 33.655467 0 0 1 32.085333 18.0224l40.7552 79.530667h100.078933v46.762667h-111.957333a28.808533 28.808533 0 0 1-25.668267-15.5648l-30.856533-60.142934-103.2192 215.381334a33.518933 33.518933 0 0 1-34.269867 21.845333 33.245867 33.245867 0 0 1-30.3104-26.897067L321.262933 100.9664 291.908267 28.672z" fill="#515151" p-id="3366"></path></svg>