<?xml version="1.0" standalone="no"?><!DOCTYPE svg PUBLIC "-//W3C//DTD SVG 1.1//EN" "http://www.w3.org/Graphics/SVG/1.1/DTD/svg11.dtd"><svg t="1642427407626" class="icon" viewBox="0 0 1024 1024" version="1.1" xmlns="http://www.w3.org/2000/svg" p-id="5413" xmlns:xlink="http://www.w3.org/1999/xlink" width="200" height="200"><defs><style type="text/css"></style></defs><path d="M876.901209 293.388031l0.119223-0.079482L926.524484 243.75151a22.612635 22.612635 0 1 0-31.965019-31.978266l-46.735428 46.735427C769.030862 172.946277 658.153445 117.41484 534.320459 111.427194a22.374188 22.374188 0 0 0 0.887549-5.92141V45.218672h105.499134a22.612635 22.612635 0 1 0 0-45.212022h-241.095459a22.612635 22.612635 0 1 0 0 45.212022h90.437291v60.287112a22.254965 22.254965 0 0 0 0.874302 5.894916 455.551194 455.551194 0 0 0-315.901286 148.366436l-47.940905-47.954151A22.612635 22.612635 0 1 0 95.049832 243.75151l49.530545 49.530545c0.503386 0.503386 1.152489 0.66235 1.655875 1.099501A454.252988 454.252988 0 0 0 55.414798 567.41554C55.414798 819.148342 260.226715 1024 511.986011 1024s456.557966-204.851658 456.557967-456.58446a454.372211 454.372211 0 0 0-91.642769-274.027509zM511.972764 978.761484c-226.828436 0-411.359191-184.530755-411.359191-411.332697s184.530755-411.345944 411.359191-411.345945 411.345944 184.517508 411.345945 411.332698-184.530755 411.345944-411.345945 411.345944z" p-id="5414"></path><path d="M509.985714 563.150004s-2.026791-149.161256-2.026792-271.563566c150.022312 0 271.643048 121.567749 271.643049 271.563566s-121.620737 271.563566-271.643049 271.563567c-107.764371 0-132.814454-26.017114-202.334727-111.274827 128.946329-108.625427 204.361519-160.288739 204.361519-160.28874z" p-id="5415" data-spm-anchor-id="a313x.7781069.0.i23" class="selected" fill="#dbdbdb"></path><path d="M514.807623 865.565841a303.767031 303.767031 0 0 1-235.465482-111.274827 22.599388 22.599388 0 1 1 34.9191-28.745997 258.819949 258.819949 0 0 0 200.546382 94.808802c143.067635 0 259.52204-116.454405 259.52204-259.575028s-116.414664-259.561781-259.52204-259.561781a22.612635 22.612635 0 0 1 0-45.22527c168.024989 0 304.681074 136.735567 304.681074 304.787051s-136.709073 304.78705-304.681074 304.78705z" p-id="5416"></path><path d="M469.529366 554.433476A45.980348 45.980348 0 1 0 492.565905 514.612985a45.993595 45.993595 0 0 0-22.983551 39.820491z" p-id="5417"></path><path d="M515.509714 623.0662a68.619477 68.619477 0 1 1 68.592983-68.632724 68.672465 68.672465 0 0 1-68.592983 68.632724z m0-92.013684a23.407455 23.407455 0 1 0 22.81134 23.394207 23.394208 23.394208 0 0 0-22.81134-23.394207z" p-id="5418"></path><path d="M375.144468 708.151702a22.612635 22.612635 0 0 1-15.60497-38.972684L451.592924 581.550092a22.612635 22.612635 0 1 1 31.196692 32.733345l-92.053425 87.668667a22.519905 22.519905 0 0 1-15.591723 6.239339z" p-id="5419"></path></svg>