<?xml version="1.0" standalone="no"?>
<!DOCTYPE svg PUBLIC "-//W3C//DTD SVG 1.1//EN" "http://www.w3.org/Graphics/SVG/1.1/DTD/svg11.dtd">
<svg t="1637895277217" class="icon" viewBox="0 0 1024 1024" version="1.1" xmlns="http://www.w3.org/2000/svg" p-id="68170" xmlns:xlink="http://www.w3.org/1999/xlink" width="200" height="200">
  <defs>
    <style type="text/css"></style>
  </defs>
  <path d="M228.993707 568.920747c-67.863893 0-122.88 55.016107-122.88 122.88 0 23.125333 6.4 44.752213 17.506987 63.225173l0.044373-0.027307c2.863787 5.403307 8.47872 9.127253 15.02208 9.127253 9.424213 0 17.066667-7.642453 17.066667-17.066667 0-3.539627-1.078613-6.83008-2.925227-9.557333l0.064853-0.037547c-8.021333-13.34272-12.642987-28.962133-12.642987-45.663573 0-49.012053 39.734613-88.746667 88.746667-88.746667 49.012053 0 88.746667 39.734613 88.746667 88.746667 0 49.012053-39.734613 88.746667-88.746667 88.746667-9.427627 0-17.066667 7.642453-17.066667 17.066667l0 109.226667c0 9.424213 7.63904 17.066667 17.066667 17.066667 9.424213 0 17.066667-7.642453 17.066667-17.066667l0-93.36832c59.78112-8.311467 105.813333-59.603627 105.813333-121.67168C351.873707 623.936853 296.8576 568.920747 228.993707 568.920747z" p-id="68171"></path>
  <path d="M228.993707 534.787413c9.424213 0 17.066667-7.642453 17.066667-17.066667l0-395.946667-0.344747 0c-1.580373-7.789227-8.465067-13.653333-16.72192-13.653333-8.256853 0-15.141547 5.864107-16.72192 13.653333l-0.344747 0 0 395.946667C211.92704 527.14496 219.56608 534.787413 228.993707 534.787413z" p-id="68172"></path>
  <path d="M536.193707 218.55232 536.193707 125.187413c0-9.424213-7.642453-17.066667-17.066667-17.066667-9.424213 0-17.066667 7.642453-17.066667 17.066667l0 93.344427c-55.3472 7.693653-98.884267 52.247893-105.045333 108.07296l0.095573 0.01024c-1.378987 6.283947 0.822613 13.07648 6.27712 17.23392 7.49568 5.71392 18.203307 4.273493 23.92064-3.222187 2.341547-3.068587 3.42016-6.67648 3.433813-10.26048l0.197973 0.02048c4.898133-44.38016 42.50624-78.90944 88.190293-78.90944 49.012053 0 88.746667 39.734613 88.746667 88.746667 0 49.012053-39.734613 88.746667-88.746667 88.746667-20.23424 0-38.877867-6.785707-53.807787-18.18624l-0.006827 0.01024 0 0c-7.49568-5.71392-18.203307-4.273493-23.92064 3.222187-5.717333 7.49568-4.273493 18.203307 3.222187 23.92064 0.058027 0.044373 0.119467 0.068267 0.177493 0.109227 20.64384 15.711573 46.390613 25.060693 74.335573 25.060693 67.863893 0 122.88-55.016107 122.88-122.88C642.00704 278.155947 595.974827 226.863787 536.193707 218.55232z" p-id="68173"></path>
  <path d="M519.12704 497.240747c-9.424213 0-17.066667 7.642453-17.066667 17.066667l0 85.333333c0 9.424213 7.642453 17.066667 17.066667 17.066667 9.424213 0 17.066667-7.642453 17.066667-17.066667l0-85.333333C536.193707 504.8832 528.551253 497.240747 519.12704 497.240747z" p-id="68174"></path>
  <path d="M935.553707 589.400747c0-67.863893-55.016107-122.88-122.88-122.88s-122.88 55.016107-122.88 122.88c0 22.818133 6.249813 44.16512 17.087147 62.47424 2.850133 5.444267 8.48896 9.202347 15.06304 9.202347 9.424213 0 17.066667-7.642453 17.066667-17.066667 0-3.26656-0.965973-6.28736-2.556587-8.881493l0.116053-0.068267c-8.021333-13.34272-12.642987-28.962133-12.642987-45.663573 0-49.012053 39.734613-88.746667 88.746667-88.746667 49.012053 0 88.746667 39.734613 88.746667 88.746667 0 49.012053-39.734613 88.746667-88.746667 88.746667-9.427627 0-17.066667 7.642453-17.066667 17.066667l0 211.626667c0 9.424213 7.63904 17.066667 17.066667 17.066667 9.424213 0 17.066667-7.642453 17.066667-17.066667l0-195.76832C889.521493 702.76096 935.553707 651.472213 935.553707 589.400747z" p-id="68175"></path>
  <path d="M812.673707 432.387413c9.424213 0 17.066667-7.642453 17.066667-17.066667l0-293.546667-0.344747 0c-1.580373-7.789227-8.465067-13.653333-16.72192-13.653333-8.256853 0-15.141547 5.864107-16.72192 13.653333l-0.344747 0 0 293.546667C795.60704 424.74496 803.24608 432.387413 812.673707 432.387413z" p-id="68176"></path>
  <path d="M519.12704 640.600747c-9.424213 0-17.066667 7.642453-17.066667 17.066667l0 252.586667 0.344747 0c1.580373 7.789227 8.465067 13.653333 16.72192 13.653333 8.256853 0 15.141547-5.864107 16.72192-13.653333l0.344747 0 0-252.586667C536.193707 648.2432 528.551253 640.600747 519.12704 640.600747z" p-id="68177"></path>
</svg>