<?xml version="1.0" standalone="no"?><!DOCTYPE svg PUBLIC "-//W3C//DTD SVG 1.1//EN" "http://www.w3.org/Graphics/SVG/1.1/DTD/svg11.dtd"><svg t="1615430216668" class="icon" viewBox="0 0 1024 1024" version="1.1" xmlns="http://www.w3.org/2000/svg" p-id="3555" xmlns:xlink="http://www.w3.org/1999/xlink" width="200" height="200"><defs><style type="text/css"></style></defs><path d="M302.8 537H73.5v-50h229.2L165.1 349.4l35.4-35.4 162.6 162.6 35.4 35.4-35.4 35.4L200.5 710l-35.4-35.4L302.8 537zM160.6 152h266.8v720H160.6v50h316.8V102H160.6v50z m560.6 335l137.6-137.6-35.3-35.4-162.6 162.6-35.4 35.4 35.4 35.4L823.5 710l35.4-35.4L721.2 537h229.2v-50H721.2zM596.5 152h266.8v-50H546.5v820h316.8v-50H596.5V152z" fill="#8a8a8a" p-id="3556"></path></svg>