<?xml version="1.0" standalone="no"?><!DOCTYPE svg PUBLIC "-//W3C//DTD SVG 1.1//EN" "http://www.w3.org/Graphics/SVG/1.1/DTD/svg11.dtd"><svg t="1612532297656" class="icon" viewBox="0 0 1024 1024" version="1.1" xmlns="http://www.w3.org/2000/svg" p-id="40784" xmlns:xlink="http://www.w3.org/1999/xlink" width="400" height="400"><defs><style type="text/css"></style></defs><path d="M36.141176 858.352941c-18.070588 0-30.117647-12.047059-30.117647-30.117647V168.658824c0-15.058824 12.047059-30.117647 30.117647-30.117648s30.117647 12.047059 30.117648 30.117648v659.57647c0 18.070588-15.058824 30.117647-30.117648 30.117647zM993.882353 948.705882h-60.235294c-18.070588 0-30.117647-12.047059-30.117647-30.117647s12.047059-30.117647 30.117647-30.117647h60.235294c18.070588 0 30.117647 12.047059 30.117647 30.117647s-12.047059 30.117647-30.117647 30.117647z m-180.705882 0h-60.235295c-18.070588 0-30.117647-12.047059-30.117647-30.117647s12.047059-30.117647 30.117647-30.117647h60.235295c18.070588 0 30.117647 12.047059 30.117647 30.117647s-12.047059 30.117647-30.117647 30.117647z m-177.694118 0h-60.235294c-18.070588 0-30.117647-12.047059-30.117647-30.117647s12.047059-30.117647 30.117647-30.117647h60.235294c18.070588 0 30.117647 12.047059 30.117647 30.117647s-15.058824 30.117647-30.117647 30.117647z m-180.705882 0h-60.235295c-18.070588 0-30.117647-12.047059-30.117647-30.117647s12.047059-30.117647 30.117647-30.117647h60.235295c18.070588 0 30.117647 12.047059 30.117647 30.117647s-15.058824 30.117647-30.117647 30.117647z m-180.705883 0h-60.235294c-18.070588 0-30.117647-12.047059-30.117647-30.117647s12.047059-30.117647 30.117647-30.117647h60.235294c18.070588 0 30.117647 12.047059 30.117647 30.117647s-12.047059 30.117647-30.117647 30.117647z m-177.694117 0h-60.235295c-18.070588 0-30.117647-12.047059-30.117647-30.117647s12.047059-30.117647 30.117647-30.117647h60.235295c18.070588 0 30.117647 12.047059 30.117647 30.117647s-15.058824 30.117647-30.117647 30.117647zM993.882353 858.352941c-18.070588 0-30.117647-12.047059-30.117647-30.117647V168.658824c0-15.058824 12.047059-30.117647 30.117647-30.117648s30.117647 12.047059 30.117647 30.117648v659.57647c0 18.070588-12.047059 30.117647-30.117647 30.117647zM993.882353 108.423529h-60.235294c-18.070588 0-30.117647-12.047059-30.117647-30.117647s12.047059-30.117647 30.117647-30.117647h60.235294c18.070588 0 30.117647 12.047059 30.117647 30.117647s-12.047059 30.117647-30.117647 30.117647z m-180.705882 0h-60.235295c-18.070588 0-30.117647-12.047059-30.117647-30.117647s12.047059-30.117647 30.117647-30.117647h60.235295c18.070588 0 30.117647 12.047059 30.117647 30.117647s-12.047059 30.117647-30.117647 30.117647z m-177.694118 0h-60.235294c-18.070588 0-30.117647-12.047059-30.117647-30.117647s12.047059-30.117647 30.117647-30.117647h60.235294c18.070588 0 30.117647 12.047059 30.117647 30.117647s-15.058824 30.117647-30.117647 30.117647z m-180.705882 0h-60.235295c-18.070588 0-30.117647-12.047059-30.117647-30.117647s12.047059-30.117647 30.117647-30.117647h60.235295c18.070588 0 30.117647 12.047059 30.117647 30.117647s-15.058824 30.117647-30.117647 30.117647z m-180.705883 0h-60.235294c-18.070588 0-30.117647-12.047059-30.117647-30.117647s12.047059-30.117647 30.117647-30.117647h60.235294c18.070588 0 30.117647 12.047059 30.117647 30.117647s-12.047059 30.117647-30.117647 30.117647z m-177.694117 0h-60.235295c-18.070588 0-30.117647-12.047059-30.117647-30.117647s12.047059-30.117647 30.117647-30.117647h60.235295c18.070588 0 30.117647 12.047059 30.117647 30.117647s-15.058824 30.117647-30.117647 30.117647zM873.411765 530.070588H153.6c-18.070588 0-30.117647-12.047059-30.117647-30.117647 0-15.058824 12.047059-30.117647 30.117647-30.117647H873.411765c18.070588 0 30.117647 12.047059 30.117647 30.117647 0 15.058824-12.047059 30.117647-30.117647 30.117647z" fill="#515151" p-id="40785"></path><path d="M852.329412 406.588235l75.294117 75.294118c9.035294 9.035294 9.035294 27.105882 0 36.141176l-75.294117 75.294118c-6.023529 6.023529-15.058824 0-15.058824-6.023529v-174.682353c3.011765-9.035294 12.047059-12.047059 15.058824-6.02353zM168.658824 593.317647l-75.294118-75.294118c-9.035294-9.035294-9.035294-27.105882 0-36.141176l75.294118-75.294118c6.023529-6.023529 15.058824 0 15.058823 6.02353v174.682353c0 6.023529-9.035294 9.035294-15.058823 6.023529z" fill="#515151" p-id="40786"></path></svg>