<svg t="1642316193697" class="icon" viewBox="0 0 1024 1024" version="1.1" xmlns="http://www.w3.org/2000/svg" p-id="3414" width="16" height="16"><path d="M810.688 463.616c-81.472 0-149.376 69.504-149.376 149.376 0 58.24 36.352 110.72 87.744 134.976-24.512 66.304-87.552 113.856-162.368 113.856-85.12 0-154.88-61.44-170.048-142.272 19.712-27.456 36.416-62.4 42.816-87.872 144.896-95.552 201.856-385.536 201.856-417.024 0-53.824-99.584-149.312-99.584-149.312h-34.752c-35.84-7.104-72.576 12.928-85.12 48.832-13.696 39.232 6.72 81.856 45.504 95.488 8.128 2.816 16.448 3.904 24.64 3.84v1.28h49.728C560.896 260.48 505.92 563.2 362.688 563.2c-143.04 0-199.104-348.416-199.104-348.416h32.32c29.632 6.528 61.248-5.76 78.528-33.344 21.888-35.52 11.584-82.048-23.104-104.32-11.904-7.616-24.96-11.136-38.016-11.392v-0.32h-49.728S64 148.288 64 201.728c0 31.744 58.048 335.36 205.568 431.36 10.112 28.096 28.288 67.776 48.896 95.808 20.096 131.328 131.328 232.512 268.224 232.512 127.36 0 232.768-87.36 263.04-205.184C912.704 738.24 960 679.488 960 612.992c0-79.808-67.776-149.376-149.312-149.376z m0 199.104c-27.584 0-49.792-22.272-49.792-49.728 0-27.584 22.272-49.792 49.792-49.792 27.52 0 49.728 22.272 49.728 49.792 0 27.52-22.208 49.728-49.728 49.728z" fill="#6d7885" p-id="3415"></path></svg>