<?xml version="1.0" standalone="no"?><!DOCTYPE svg PUBLIC "-//W3C//DTD SVG 1.1//EN" "http://www.w3.org/Graphics/SVG/1.1/DTD/svg11.dtd"><svg t="1612535539010" class="icon" viewBox="0 0 1078 1024" version="1.1" xmlns="http://www.w3.org/2000/svg" p-id="57458" xmlns:xlink="http://www.w3.org/1999/xlink" width="421.09375" height="400"><defs><style type="text/css"></style></defs><path d="M1053.490919 539.484289H845.277641V415.334562h133.802631c6.690132 0 13.134503-2.635093 17.872209-7.331838a24.985593 24.985593 0 0 0 7.386451-17.749328V94.413048a24.985593 24.985593 0 0 0-7.386451-17.749329 25.313273 25.313273 0 0 0-17.885862-7.345491H660.534437c-6.703785-0.013653-13.134503 2.621439-17.885862 7.331838a24.985593 24.985593 0 0 0-7.372798 17.749329v295.840347c0 13.953703 11.35957 25.09482 25.25866 25.09482h133.843591v124.163381H586.055524c-6.690132 0-13.12085 2.635093-17.872209 7.345491a24.985593 24.985593 0 0 0-7.372798 17.749329v191.938508h-117.268449v-122.64786a24.985593 24.985593 0 0 0-7.386451-17.749329 25.313273 25.313273 0 0 0-17.885862-7.345491H284.398857v-124.149727h208.459038c6.703785 0 13.134503-2.635093 17.885862-7.345492a24.985593 24.985593 0 0 0 7.372798-17.749328V25.095093a24.985593 24.985593 0 0 0-7.372798-17.762982A25.354233 25.354233 0 0 0 492.844242 0.000273H25.25866C18.568528 0.000273 12.124157 2.635366 7.386451 7.345764A25.0129 25.0129 0 0 0 0 25.095093v434.448951c0 13.994663 11.373224 25.108473 25.25866 25.108473h208.459038v124.149727h-133.802631c-6.717438 0-13.148156 2.635093-17.885862 7.345491a24.985593 24.985593 0 0 0-7.372798 17.749329v295.867654c0 13.953703 11.35957 25.09482 25.25866 25.09482h318.177195c6.690132 0.013653 13.134503-2.635093 17.872208-7.331838a24.985593 24.985593 0 0 0 7.386452-17.749328v-122.811701h117.282102v191.938509c0 13.953703 11.386877 25.09482 25.25866 25.09482H1053.354386c6.690132 0 13.134503-2.635093 17.872208-7.345491 4.737705-4.710399 7.400105-11.086504 7.400105-17.749329V564.770256c0.136533-6.690132-2.457599-13.148156-7.195305-17.899515a24.985593 24.985593 0 0 0-17.913168-7.359145v-0.027307zM50.51732 434.312691V50.189913h416.767889V434.312691H50.51732v0.027306z m342.302629 470.370861H125.201033v-245.486868h267.659876v245.486868h-0.04096zM685.943284 365.185882V119.521521h267.700835v245.486868H685.92963V365.172229z m342.302628 608.801971H611.478024V589.878729H1028.232259v384.136431z" fill="#515151" p-id="57459"></path></svg>