<?xml version="1.0" standalone="no"?><!DOCTYPE svg PUBLIC "-//W3C//DTD SVG 1.1//EN" "http://www.w3.org/Graphics/SVG/1.1/DTD/svg11.dtd"><svg t="1609656092812" class="icon" viewBox="0 0 1339 1024" version="1.1" xmlns="http://www.w3.org/2000/svg" p-id="739" xmlns:xlink="http://www.w3.org/1999/xlink" width="523.046875" height="400"><defs><style type="text/css"></style></defs><path d="M23.250385 368.64l41.425455 24.203636 450.56 263.447273a51.2 51.2 0 0 0 26.065455 7.912727 55.389091 55.389091 0 0 0 21.876363-5.12l465.454546-211.316363L1198.057658 372.363636 1303.71584 325.818182a37.236364 37.236364 0 0 0 25.134545-34.443637 38.167273 38.167273 0 0 0-24.203636-37.236363l-306.734545-152.203637-196.421819-93.090909a100.072727 100.072727 0 0 0-12.567272-4.654545h-7.447273L773.097658 2.327273l-13.498182 4.654545-357.469091 139.636364L26.508567 297.425455a40.029091 40.029091 0 0 0-17.687272 12.101818 37.236364 37.236364 0 0 0-8.378182 29.789091 46.545455 46.545455 0 0 0 22.807272 29.323636z m54.458182-32.116364l439.389091-174.08 82.850909-33.047272 175.941818-69.818182a9.774545 9.774545 0 0 1 8.843637 0l309.061818 149.876363 158.254545 77.265455-195.956363 88.436364L546.421295 605.090909h-8.843637z" p-id="740" fill="#707070"></path><path d="M26.508567 565.992727q247.156364 143.825455 494.312728 289.047273a49.803636 49.803636 0 0 0 24.66909 6.981818 53.061818 53.061818 0 0 0 21.41091-5.12l206.661818-93.090909L1021.650385 651.636364l289.978182-130.792728a38.167273 38.167273 0 0 0 23.738182-34.443636 36.305455 36.305455 0 0 0-21.410909-35.374545l-15.36-8.378182-22.807273-11.636364a17.687273 17.687273 0 0 0-14.429091 0c-8.843636 3.258182-17.687273 6.516364-26.996363 10.705455l-23.738182 6.981818 53.527273 29.323636L561.781295 791.272727a21.876364 21.876364 0 0 1-23.272728 0L163.352204 575.767273l-75.869091-42.821818 60.043636-18.618182-33.047273-16.290909-27.927272-13.498182a23.738182 23.738182 0 0 0-14.894546 0l-16.756363 4.654545-19.083637 5.12a37.701818 37.701818 0 0 0-30.72 33.512728 38.632727 38.632727 0 0 0 21.410909 38.167272z" p-id="741" fill="#707070"></path><path d="M1322.334022 615.330909l-26.996364-14.429091-8.843636-4.654545a13.032727 13.032727 0 0 0-11.170909 0l-25.134546 9.774545-23.272727 9.309091 40.494545 28.858182-363.985454 158.254545-96.349091 41.890909-250.88 109.381819a11.636364 11.636364 0 0 1-12.101818 0L279.71584 804.305455l-204.8-113.105455 43.287273-20.945455-19.549091-12.101818-22.341818-13.032727a15.825455 15.825455 0 0 0-13.032728 0l-22.341818 8.843636-6.981818 2.792728a36.770909 36.770909 0 0 0-24.669091 32.116363 38.167273 38.167273 0 0 0 20.014546 38.167273l27.927272 15.825455 18.152728 11.170909 451.025454 263.447272a48.872727 48.872727 0 0 0 23.272727 6.516364 42.356364 42.356364 0 0 0 19.083637-4.654545l72.610909-32.581819 675.374545-304.872727a35.84 35.84 0 0 0 22.341818-31.650909 34.909091 34.909091 0 0 0-16.756363-34.909091z" p-id="742" fill="#707070"></path></svg>