<?xml version="1.0" standalone="no"?><!DOCTYPE svg PUBLIC "-//W3C//DTD SVG 1.1//EN" "http://www.w3.org/Graphics/SVG/1.1/DTD/svg11.dtd"><svg t="1612529150588" class="icon" viewBox="0 0 1199 1024" version="1.1" xmlns="http://www.w3.org/2000/svg" p-id="9045" width="468.359375" height="400" xmlns:xlink="http://www.w3.org/1999/xlink"><defs><style type="text/css"></style></defs><path d="M17.17627 415.82c148.74 86.901 297.538 173.708 446.125 260.868 12.529 7.351 23.598 8.011 36.83 2.014 176.143-79.845 352.437-159.357 528.691-238.954 48.089-21.715 96.135-43.526 144.285-65.106 11.026-4.944 18.011-12.436 18.538-24.896 0.56-13.19-6.143-21.71-17.696-27.03-2.325-1.072-4.574-2.31-6.878-3.429-91.038-44.178-182.081-88.347-273.119-132.523-59.234-28.742-118.444-57.534-177.732-86.162-4.721-2.279-9.978-3.451-15.242-5.221-6.001 1.859-11.687 3.218-17.071 5.346-108.102 42.733-216.174 85.551-324.246 128.358-113.555 44.978-227.121 89.922-340.601 135.089-4.798 1.908-9.749 5.12-12.931 9.087-11.394 14.203-6.41 32.354 11.049 42.551z m38.494-27.883c134.226-53.23 268.453-106.463 402.695-159.648 78.311-31.025 156.67-61.921 234.934-93.063 4.927-1.961 8.757-2.065 13.637 0.31 95.338 46.433 190.777 92.662 286.188 138.942 46.559 22.58 93.113 45.17 139.657 67.781 3.188 1.55 6.273 3.312 11.194 5.924-3.778 1.935-5.934 3.161-8.18 4.176-214.995 97.074-430.011 194.106-644.93 291.345-5.681 2.57-9.715 2.083-14.832-0.91C335.79127 560.687 195.46827 478.712 55.16927 396.702c-2.162-1.263-4.22-2.708-7.814-5.03 3.599-1.623 5.918-2.783 8.315-3.735z m-35.429 165.215C169.65927 640.401 319.06127 727.68 468.34427 815.157c11.715 6.863 22.503 7.3 34.848 1.69 86.742-39.435 173.653-78.492 260.499-117.697 138.201-62.395 276.377-124.852 414.613-187.166 11.007-4.963 17.226-13.333 17.614-24.88 0.377-11.257-5.156-20.085-15.53-25.443-11.609-5.995-23.109-12.202-34.772-18.092-2.134-1.078-5.196-2.128-7.179-1.404-9.714 3.539-19.21 7.685-29.941 12.093 16.252 8.932 31.211 17.153 47.55 26.135-4.037 2.014-6.626 3.442-9.324 4.635-214.107 94.64-428.258 189.187-642.239 284.112-10.11 4.485-17.59 4.655-27.477-0.993-137.99-78.807-276.26-157.13-414.447-235.591-2.252-1.278-4.352-2.82-8.241-5.362 18.156-5.546 34.188-10.439 52.278-15.965-14.144-7.056-26.174-13.282-38.444-18.985-2.439-1.133-5.978-0.905-8.724-0.198-10.898 2.796-21.589 6.421-32.532 8.996-13.026 3.067-21.029 10.905-22.653 23.907-1.601 12.838 5.025 21.798 15.998 28.207z m1167.239 15.765c-10.281-6.23-21.186-11.438-31.877-16.982-1.286-0.668-3.169-1.316-4.357-0.867-10.097 3.807-20.094 7.869-31.413 12.367l36.174 25.665c-3.779 1.831-5.953 2.985-8.199 3.963-111.104 48.319-222.207 96.641-333.327 144.925-105.014 45.634-210.073 91.171-315.005 136.993-6.394 2.793-11.124 2.27-17.063-1.03C339.45027 794.54 196.37827 715.322 53.33727 636.052c-2.341-1.297-4.555-2.822-8.097-5.036 13.43-6.587 25.482-12.496 39.246-19.245-9.66-5.842-17.805-10.963-26.193-15.645-1.392-0.779-3.993-0.001-5.802 0.678-8.865 3.332-17.669 6.833-26.464 10.354-10.357 4.145-16.847 11.323-17.825 22.851-1.042 12.275 3.782 21.301 14.474 27.446 14.002 8.05 27.877 16.323 41.823 24.474 136.347 79.689 272.71 159.347 409.012 239.118 10.412 6.093 20.586 6.58 31.461 1.589 21.887-10.041 43.891-19.822 65.841-29.729a5902898.818 5902898.818 0 0 0 500.831-226.118c37.122-16.762 74.209-33.605 111.332-50.368 9.747-4.403 15.327-11.89 16.299-22.441 0.97-10.514-2.697-19.551-11.797-25.065z" fill="#515151" p-id="9046"></path></svg>