<?xml version="1.0" standalone="no"?>
<!DOCTYPE svg PUBLIC "-//W3C//DTD SVG 1.1//EN" "http://www.w3.org/Graphics/SVG/1.1/DTD/svg11.dtd">
<svg t="1626163614259" class="icon" viewBox="0 0 1024 1024" version="1.1" xmlns="http://www.w3.org/2000/svg" p-id="15970" xmlns:xlink="http://www.w3.org/1999/xlink" width="128" height="128">
    <defs>
        <style type="text/css"></style>
    </defs>
    <path d="M 843.366 739.738 l -95.6416 -127.59 V 369.254 c 0 -118.989 -84.992 -218.522 -197.222 -241.05 c 0 -2.4576 -0.2048 -5.12 -0.8192 -7.5776 a 68.1984 68.1984 0 0 0 -2.6624 -9.216 a 47.5341 47.5341 0 0 0 -10.6496 -15.7696 c -18.2272 -18.2272 -50.7904 -18.2272 -69.0176 0 c -2.4576 2.2528 -4.5056 4.7104 -6.3488 7.3728 c -1.8432 2.6624 -3.072 5.5296 -4.5056 8.3968 c -1.2288 2.8672 -2.048 6.144 -2.6624 9.216 c -0.4096 2.4576 -0.6144 5.12 -0.8192 7.5776 c -112.435 22.7328 -197.222 122.061 -197.222 241.05 v 242.893 l -95.6416 127.59 c -14.5408 19.456 -16.7936 45.056 -5.9392 66.7648 s 32.768 35.2256 56.9344 35.2256 h 189.85 c 8.8064 47.7184 50.7904 83.968 100.966 83.968 s 91.9552 -36.2496 100.966 -83.968 h 189.85 c 24.3712 0 46.08 -13.5168 56.9344 -35.2256 s 8.192 -47.3088 -6.3488 -66.7648 Z M 501.76 876.544 c -22.9376 0 -42.3936 -14.5408 -50.176 -34.816 h 100.147 c -7.5776 20.2752 -27.0336 34.816 -49.9712 34.816 Z m 303.718 -91.9552 c -1.2288 2.4576 -4.9152 7.9872 -13.1072 7.9872 H 211.149 c -8.192 0 -11.8784 -5.5296 -13.1072 -7.9872 a 13.9674 13.9674 0 0 1 1.4336 -15.1552 l 105.472 -140.698 V 369.254 c 0 -108.544 88.2688 -196.813 196.813 -196.813 s 196.813 88.2688 196.813 196.813 v 244.531 c 0 9.4208 3.072 18.8416 8.8064 26.4192 l 96.6656 129.024 c 4.9152 6.5536 2.6624 12.9024 1.4336 15.36 Z" p-id="15971"></path>
</svg>