<?xml version="1.0" standalone="no"?><!DOCTYPE svg PUBLIC "-//W3C//DTD SVG 1.1//EN" "http://www.w3.org/Graphics/SVG/1.1/DTD/svg11.dtd"><svg t="1609730965257" class="icon" viewBox="0 0 1024 1024" version="1.1" xmlns="http://www.w3.org/2000/svg" p-id="10142" xmlns:xlink="http://www.w3.org/1999/xlink" width="400" height="400"><defs><style type="text/css"></style></defs><path d="M395.776 467.846H135.393c-39.844 0-72.27-32.425-72.27-72.27V218.629c0-85.865 69.842-155.706 155.707-155.706h176.946c39.844 0 72.27 32.425 72.27 72.27v260.382c0 39.846-32.426 72.271-72.27 72.271zM218.83 101.488c-64.588 0-117.142 52.555-117.142 117.141v176.947c0 18.586 15.12 33.706 33.707 33.706h260.38c18.586 0 33.707-15.12 33.707-33.706V135.194c0-18.586-15.12-33.706-33.706-33.706H218.83z m170.262 858.069H142.078c-43.535 0-78.954-35.42-78.954-78.955V633.608c0-43.554 35.419-78.973 78.954-78.973h247.014c43.535 0 78.955 35.419 78.955 78.973v246.995c-0.001 43.534-35.42 78.954-78.955 78.954zM142.078 593.198c-22.275 0-40.39 18.133-40.39 40.41v246.995c0 22.275 18.115 40.39 40.39 40.39h247.014c22.275 0 40.39-18.115 40.39-40.39V633.608c0-22.276-18.115-40.41-40.39-40.41H142.078z m727.35-125.352H645.181c-49.824 0-90.347-40.522-90.347-90.328V153.27c0-49.825 40.523-90.347 90.347-90.347h224.247c49.806 0 90.328 40.522 90.328 90.347v224.247c0 49.806-40.522 90.328-90.328 90.328zM645.181 101.488c-28.546 0-51.783 23.236-51.783 51.783v224.247c0 28.547 23.236 51.763 51.783 51.763h224.247c28.546 0 51.764-23.217 51.764-51.763V153.27c0-28.547-23.218-51.783-51.764-51.783H645.181z m235.621 858.069H633.79c-43.535 0-78.955-35.42-78.955-78.955V633.608c0-43.554 35.42-78.973 78.955-78.973h247.013c43.536 0 78.955 35.419 78.955 78.973v246.995c0 43.534-35.42 78.954-78.955 78.954zM633.79 593.198c-22.276 0-40.39 18.133-40.39 40.41v246.995c0 22.275 18.114 40.39 40.39 40.39h247.013c22.276 0 40.39-18.115 40.39-40.39V633.608c0-22.276-18.114-40.41-40.39-40.41H633.79z" p-id="10143" fill="#707070"></path><path d="M166.802 279.846c-7.984 0-14.461-6.477-14.461-14.461v-11.43c0-70.876 45.814-114.901 119.552-114.901h17.267c7.984 0 14.46 6.477 14.46 14.461s-6.476 14.462-14.46 14.462h-17.267c-57.602 0-90.63 31.333-90.63 85.978v11.43c0 7.984-6.478 14.461-14.46 14.461z" p-id="10144" fill="#707070"></path></svg>