<svg t="1642317552642" class="icon" viewBox="0 0 1024 1024" version="1.1" xmlns="http://www.w3.org/2000/svg" p-id="6737" width="16" height="16"><path d="M512 625.548387m-173.419355 0a173.419355 173.419355 0 1 0 346.83871 0 173.419355 173.419355 0 1 0-346.83871 0Z" fill="#c1c9ee" p-id="6738"></path><path d="M514.758194 560.177548h-4.129033a47.632516 47.632516 0 0 1-47.483871-47.483871V54.371097A47.632516 47.632516 0 0 1 510.629161 6.887226h4.129033a47.632516 47.632516 0 0 1 47.483871 47.483871v458.32258a47.632516 47.632516 0 0 1-47.483871 47.483871z" fill="#c1c9ee" p-id="6739"></path><path d="M656.516129 216.080516h-129.370839a41.405935 41.405935 0 0 1-41.290322-41.290322c0-22.709677 18.580645-41.290323 41.290322-41.290323h129.370839c22.709677 0 41.290323 18.580645 41.290323 41.290323s-18.580645 41.290323-41.290323 41.290322zM656.516129 352.338581h-129.370839a41.405935 41.405935 0 0 1-41.290322-41.290323c0-22.709677 18.580645-41.290323 41.290322-41.290323h129.370839c22.709677 0 41.290323 18.580645 41.290323 41.290323s-18.580645 41.290323-41.290323 41.290323zM964.789677 992.355097c-6.309161 0-12.700903-1.453419-18.696258-4.508903l-135.795613-69.136517a118.618839 118.618839 0 0 0-94.901677-5.450322l-116.653419 43.371355a267.379613 267.379613 0 0 1-184.435613 0.677161l-130.659097-47.483871a119.708903 119.708903 0 0 0-101.342968 9.083871l-102.333935 59.557161a41.290323 41.290323 0 1 1-41.538065-71.349677l102.333936-59.573678a201.860129 201.860129 0 0 1 171.09058-15.326967l130.675613 47.483871a184.815484 184.815484 0 0 0 127.454968-0.462452l116.653419-43.387871a201.331613 201.331613 0 0 1 161.131355 9.298581l135.795613 69.136516a41.273806 41.273806 0 0 1-18.778839 78.071742zM59.226839 769.370839a41.290323 41.290323 0 0 1-20.810323-76.965162L152.526452 625.96129a172.874323 172.874323 0 0 1 146.498064-13.130322 41.273806 41.273806 0 0 1 24.708129 52.901161 41.240774 41.240774 0 0 1-52.901161 24.708129 90.739613 90.739613 0 0 0-76.750452 6.87071l-114.109935 66.427871a40.893935 40.893935 0 0 1-20.744258 5.632zM964.789677 769.370839c-7.068903 0-14.203871-1.800258-20.744258-5.615484l-114.126451-66.427871a90.723097 90.723097 0 0 0-76.750452-6.87071 41.290323 41.290323 0 1 1-28.193032-77.60929 173.122065 173.122065 0 0 1 146.498064 13.130322l114.126452 66.427871a41.25729 41.25729 0 0 1-20.810323 76.965162z" fill="#c1c9ee" p-id="6740"></path></svg>