<?xml version="1.0" standalone="no"?><!DOCTYPE svg PUBLIC "-//W3C//DTD SVG 1.1//EN" "http://www.w3.org/Graphics/SVG/1.1/DTD/svg11.dtd"><svg t="1642428484938" class="icon" viewBox="0 0 1025 1024" version="1.1" xmlns="http://www.w3.org/2000/svg" p-id="9046" xmlns:xlink="http://www.w3.org/1999/xlink" width="16.015625" height="16"><defs><style type="text/css"></style></defs><path d="M673.28 653.44V806.4H142.08v108.8h792.96z" fill="#333333" p-id="9049"></path><path d="M167.68 307.2h236.8v230.4H167.68z" fill="#71A4FF" p-id="9050"></path><path d="M142.08 262.4v326.4h320V262.4H142.08z m256 262.4H193.28V320h204.8v204.8zM583.68 262.4h83.2v76.8H583.68zM718.08 262.4h83.2v76.8h-83.2zM846.08 262.4h83.2v76.8h-83.2zM583.68 371.2h83.2v83.2H583.68zM718.08 371.2h83.2v83.2h-83.2zM846.08 371.2h83.2v83.2h-83.2zM583.68 499.2h83.2v83.2H583.68zM718.08 499.2h83.2v83.2h-83.2zM846.08 499.2h83.2v83.2h-83.2z" fill="#333333" p-id="9051"></path></svg>