<?xml version="1.0" encoding="utf-8"?>
<svg viewBox="13.175 -2.338 500 500" xmlns="http://www.w3.org/2000/svg">
  <path d="M 397.797 292.439 C 398.884 290.779 399.427 289.158 399.376 287.037 L 399.343 176.747 C 399.552 172.472 397.452 169.253 393.469 167.664 C 391.567 166.732 389.863 166.566 387.889 166.869 C 385.923 167.173 384.335 167.852 382.777 169.304 L 363.723 186.247 L 259.663 165.437 L 237.17 140.677 C 235.716 139.015 234.127 138.179 232.089 137.687 C 230.052 137.206 228.254 137.248 226.206 138.094 C 224.126 138.826 222.767 139.997 221.586 141.721 C 220.404 143.446 219.809 145.16 219.851 147.386 L 219.851 226.561 L 219.851 229.028 L 130.495 229.028 C 129.535 228.923 129.127 229.204 128.479 229.864 C 127.831 230.512 127.538 230.909 127.642 231.87 C 127.538 232.842 127.831 233.25 128.479 233.898 C 129.127 234.557 129.535 234.849 130.495 234.734 L 219.851 234.734 L 219.851 316.397 C 219.778 318.57 220.394 320.283 221.574 322.019 C 222.767 323.744 224.126 324.935 226.184 325.656 C 228.202 326.503 230.03 326.555 232.079 326.074 C 234.127 325.594 235.728 324.737 237.149 323.075 L 259.098 298.909 L 259.642 298.303 L 363.744 277.493 L 382.797 294.448 C 384.313 295.878 385.912 296.558 387.898 296.872 C 389.895 297.175 391.609 297.007 393.49 296.088 C 395.445 295.272 396.719 294.101 397.797 292.439 Z M 391.19 290.894 C 390.49 291.144 389.445 291.353 388.756 291.238 C 388.076 291.133 387.188 290.673 386.603 290.193 L 367.308 273.029 L 367.308 271.922 L 367.308 216.516 C 367.423 215.554 367.13 215.157 366.472 214.51 C 365.823 213.862 365.415 213.569 364.455 213.674 C 363.493 213.569 363.085 213.862 362.437 214.51 C 361.779 215.157 361.495 215.565 361.601 216.527 L 361.601 272.151 L 260.708 292.324 L 260.708 289.305 L 260.708 197.713 C 260.823 196.74 260.53 196.344 259.882 195.696 C 259.222 195.037 258.816 194.756 257.854 194.86 C 256.892 194.756 256.484 195.037 255.837 195.696 C 255.189 196.344 254.896 196.752 255.011 197.713 L 255.011 289.879 C 254.938 290.621 255.085 290.967 255.533 291.52 L 256.788 293.035 L 255.346 294.614 L 232.968 319.25 C 232.225 319.929 231.118 320.545 230.427 320.64 C 229.664 320.745 228.839 320.556 228.411 320.42 C 227.68 320.095 226.696 319.437 226.289 318.831 C 225.871 318.215 225.6 317.211 225.578 316.417 L 225.567 147.377 C 225.663 146.373 226.08 145.182 226.518 144.647 C 227.021 144.063 227.94 143.561 228.317 143.393 C 228.713 143.258 229.633 143.038 230.407 143.143 C 231.118 143.227 232.163 143.781 232.925 144.522 L 256.067 169.953 C 256.517 170.548 256.861 170.736 257.624 170.82 L 364.025 192.111 C 365.113 192.456 365.741 192.299 366.503 191.463 L 386.624 173.601 C 387.47 172.995 388.63 172.535 389.279 172.514 C 390.02 172.481 390.773 172.722 391.013 172.807 L 391.139 172.858 L 391.232 172.91 C 391.536 173.057 392.268 173.496 392.738 174.07 C 393.155 174.572 393.574 175.742 393.678 176.747 L 393.678 286.983 C 393.627 287.705 393.376 288.761 392.999 289.325 C 392.633 289.9 391.828 290.537 391.19 290.894 Z" fill="#2D3742" p-id="16049" style="fill-rule: nonzero;" transform="matrix(0, -1, 1, 0, 31.621773, 495.379005)"/>
</svg>