<svg t="1642426942606" class="icon" viewBox="0 0 1024 1024" version="1.1" xmlns="http://www.w3.org/2000/svg" p-id="6342" width="16" height="16"><path d="M488 687.21c-63.262 0-121.056-23.392-165.222-61.988 46.05 52.694 113.744 85.988 189.222 85.988 138.74 0 251.21-112.47 251.21-251.21 0-75.478-33.294-143.172-85.988-189.222 38.596 44.166 61.988 101.96 61.988 165.222 0 138.74-112.47 251.21-251.21 251.21z" fill="#E27F86" p-id="6343"></path><path d="M260.79 460c0 63.262 23.392 121.056 61.988 165.222 44.166 38.596 101.96 61.988 165.222 61.988 138.74 0 251.21-112.47 251.21-251.21 0-63.262-23.392-121.056-61.988-165.222-44.166-38.596-101.96-61.988-165.222-61.988-138.74 0-251.21 112.47-251.21 251.21z" fill="#E6989E" p-id="6344"></path><path d="M979 947H15v30l978 14z" fill="#F7F9FA" p-id="6345"></path><path d="M979 947v30H15v30h994v-60z" fill="#DCE6EB" p-id="6346"></path><path d="M1009 1022H260.79c-8.284 0-15-6.714-15-15s6.716-15 15-15H994v-30h-170.79c-8.284 0-15-6.714-15-15s6.716-15 15-15H1009a15 15 0 0 1 15 15v60a15 15 0 0 1-15 15z m-808.21 0H15a15 15 0 0 1-15-15v-60a15 15 0 0 1 15-15h748.21c8.284 0 15 6.714 15 15s-6.716 15-15 15H30v30h170.79c8.284 0 15 6.714 15 15s-6.716 15-15 15zM512 902a14.954 14.954 0 0 1-10.606-4.392l-63.634-63.634a15 15 0 0 1 21.212-21.214l38.028 38.03v-124.994c-139.836-7.806-251.21-124.04-251.21-265.792 0-8.286 6.716-15 15-15s15 6.714 15 15c0 130.248 105.964 236.21 236.21 236.21S748.21 590.248 748.21 460 642.248 223.79 512 223.79c-105.928 0-199.57 71.226-227.72 173.208-2.204 7.986-10.462 12.684-18.45 10.468a15 15 0 0 1-10.468-18.45c30.39-110.106 128.506-188.404 241.638-194.802V17c0-8.286 6.716-15 15-15s15 6.714 15 15v177.208c139.836 7.806 251.21 124.04 251.21 265.792S666.836 717.986 527 725.792v124.994l38.028-38.03a15.002 15.002 0 0 1 21.212 21.214l-63.634 63.634A14.94 14.94 0 0 1 512 902z m-45.864-313.842a15 15 0 0 1-15-15V346.842a15 15 0 0 1 15-15h91.726c8.284 0 15 6.714 15 15s-6.716 15-15 15h-76.726v81.016h69.44c8.284 0 15 6.714 15 15s-6.716 15-15 15h-69.44v100.3a15 15 0 0 1-15 15z" p-id="6347"></path></svg>