<svg width="1024" height="1024" xmlns="http://www.w3.org/2000/svg" class="icon">
 <defs>
  <style type="text/css"/>
 </defs>
 <g>
  <title>background</title>
  <rect fill="none" id="canvas_background" height="402" width="582" y="-1" x="-1"/>
 </g>
 <g>
  <title>Layer 1</title>
  <g transform="rotate(90 512.5155639648438,512.4802246093751) " id="svg_3">
   <path id="svg_1" fill="#333333" d="m855,654l-679,0l0,-498l679,0l0,498zm-45.267,-452.727l-588.466,0l0,407.454l588.466,0l0,-407.454z"/>
   <path id="svg_2" fill="#333333" d="m733.744,710.04a0.2,0.2 0 0 1 0.115,0.036l112.025,79.26a0.2,0.2 0 0 1 0,0.327l-112.025,79.26a0.2,0.2 0 0 1 -0.315,-0.163l0,-53.38l-451.088,0l0,53.38a0.2,0.2 0 0 1 -0.315,0.164l-112.025,-79.26a0.2,0.2 0 0 1 0,-0.327l112.025,-79.26a0.2,0.2 0 0 1 0.315,0.163l0,59.817l451.088,0l0,-59.817c0,-0.11 0.09,-0.2 0.2,-0.2z"/>
  </g>
 </g>
</svg>