<svg t="1642317604606" class="icon" viewBox="0 0 1024 1024" version="1.1" xmlns="http://www.w3.org/2000/svg" p-id="7175" width="16" height="16"><path d="M120.652077 727.809705l-79.893434-42.220108 242.928005-242.928005a16.238503 16.238503 0 0 1 22.733904 0l40.271487 40.271488a13.315572 13.315572 0 0 1 0 18.836663zM202.818903 878.827783l0.64954-126.985093-146.146527 50.014589v222.142721h966.515699v-145.172217H202.818903z" fill="#cce9c7" p-id="7176"></path><path d="M462.959721 412.782747m-51.31367 0a51.31367 51.31367 0 1 0 102.627339 0 51.31367 51.31367 0 1 0-102.627339 0Z" fill="#cce9c7" p-id="7177"></path><path d="M751.680304 152.966698l-205.904218 205.904219a97.431018 97.431018 0 0 1-136.728195 136.728195L203.143673 701.50333a389.724072 389.724072 0 0 0 548.861402-548.861402zM462.959721 746.971139a331.915002 331.915002 0 0 1-172.452902-48.390739l135.429115-135.429116a153.291468 153.291468 0 0 0 187.392325-187.392324l135.429115-135.429115A333.538852 333.538852 0 0 1 463.284491 746.971139zM784.806851 45.143038L743.236283 4.871551a15.913733 15.913733 0 0 0-22.733904 0l-69.176023 69.176023a384.852521 384.852521 0 0 0-188.366635-49.040279 389.724072 389.724072 0 0 0-288.720584 649.54012l205.904219-205.904218a97.431018 97.431018 0 0 1 135.753885-138.352046l22.084364-22.084364 244.876625-244.876625a13.315572 13.315572 0 0 0 1.948621-18.187124z" fill="#cce9c7" p-id="7178"></path><path d="M101.815414 650.189661a101.653029 101.653029 0 1 0 101.653029 101.653029 101.653029 101.653029 0 0 0-101.653029-101.653029z m0 121.464002a19.810974 19.810974 0 1 1 19.810974-19.810973 19.810974 19.810974 0 0 1-19.810974 20.135743z" fill="#cce9c7" p-id="7179"></path></svg>