<svg t="1642428899817" class="icon" viewBox="0 0 1024 1024" version="1.1" xmlns="http://www.w3.org/2000/svg" p-id="9966" width="16" height="16"><path d="M772.047 747.52l-259.755 259.84a40.363 40.363 0 0 1-17.834 13.141l-1.11 0.256a36.693 36.693 0 0 1-13.482 2.731c-0.683 0-1.366 0.512-2.048 0.512-1.28 0-2.304-0.853-3.584-0.853a32.853 32.853 0 0 1-8.192-1.707 46.336 46.336 0 0 1-9.131-3.755c-1.792-0.938-3.499-2.218-5.12-3.413-1.536-1.195-3.413-1.707-4.779-3.328l-263.51-263.339a43.093 43.093 0 0 1 0-61.354 43.52 43.52 0 0 1 61.44 0l189.612 189.44v-422.4c0-24.235 19.626-44.203 43.946-44.203 24.15 0 43.862 19.797 43.862 44.117v421.12l188.33-188.074a43.435 43.435 0 0 1 61.44 61.354zM478.159 292.523a43.947 43.947 0 1 1 0-87.894 43.947 43.947 0 0 1 0 87.894z m0-204.715a43.861 43.861 0 1 1 0-87.808 43.861 43.861 0 0 1 0 87.808z" p-id="9967" fill="#515151"></path></svg>