<svg t="1642427040395" class="icon" viewBox="0 0 1024 1024" version="1.1" xmlns="http://www.w3.org/2000/svg" p-id="8176" width="16" height="16"><path d="M607.99691 633.899596c57.278156 33.278929 95.99691 95.036941 95.99691 166.074655 0 113.596344-98.876817 204.153429-215.353068 190.713861-83.837301-9.919681-153.275066-76.477538-166.074655-159.99485-13.119578-83.517312 27.839104-159.034881 93.436993-196.793666V127.99588c0-26.559145 10.87965-50.558373 28.159094-67.837816S485.440855 31.99897 512 31.99897c53.11829 0 95.99691 42.87862 95.99691 95.99691v505.903716z" fill="#E0EBFE" p-id="8177"></path><path d="M512 0c-34.142901 0-66.237868 13.311572-90.461088 37.534792S384.00412 93.852979 384.00412 127.99588v488.304283c-70.397734 48.734431-106.652567 132.827725-93.053005 219.224944 14.815523 96.796884 96.380898 175.386355 194.009755 186.969981 8.959712 1.023967 17.855425 1.503952 26.591144 1.503952a223.128818 223.128818 0 0 0 158.650894-65.597889A222.360843 222.360843 0 0 0 735.99279 799.974251a224.92076 224.92076 0 0 0-95.99691-183.578091V127.99588c0-70.589728-57.406152-127.99588-127.99588-127.99588z m159.99485 799.974251a158.74689 158.74689 0 0 1-46.974488 113.148358A159.514866 159.514866 0 0 1 511.552014 959.969101c-6.335796 0-12.767589-0.351989-19.135384-1.087965-69.533762-8.223735-127.67589-64.189934-138.23555-133.179713-10.431664-66.461861 20.095353-130.875787 77.789496-164.090719A31.99897 31.99897 0 0 0 448.00206 633.899596V127.99588c0-17.055451 6.655786-33.118934 18.783395-45.214545S494.944549 63.99794 512 63.99794c35.294864 0 63.99794 28.703076 63.99794 63.99794v505.903716a31.99897 31.99897 0 0 0 15.935487 27.679109A160.794824 160.794824 0 0 1 671.99485 799.974251z" fill="#5465CF" p-id="8178"></path><path d="M402.94751 771.303174a15.999485 15.999485 0 0 0 20.83133-8.831716c4.543854-11.19964 11.551628-21.567306 20.319346-30.079032a15.999485 15.999485 0 1 0-22.271284-22.943261c-11.903617 11.519629-21.503308 25.727172-27.711108 40.99068a15.999485 15.999485 0 0 0 8.831716 20.863329zM512 895.971161c-12.799588 0-25.343184-2.559918-37.502793-7.77575a89.277126 89.277126 0 0 1-30.399021-20.671334 88.957137 88.957137 0 0 1-20.479341-30.399022 84.797271 84.797271 0 0 1-5.983808-19.999356A91.165066 91.165066 0 0 1 416.00309 799.974251a15.999485 15.999485 0 1 0-31.99897 0c0 7.679753 0.735976 15.487501 2.111932 22.68727 1.407955 8.799717 4.159866 17.983421 7.999742 26.847135 6.2078 15.263509 15.807491 29.439052 27.35912 40.638692 11.519629 11.903617 25.727172 21.503308 40.70269 27.583113 15.903488 6.783782 32.638949 10.23967 49.822396 10.23967a15.999485 15.999485 0 1 0 0-31.99897zM496.000515 575.981461a15.999485 15.999485 0 0 0 15.999485-15.999485v-415.986611a15.999485 15.999485 0 1 0-31.99897 0v415.986611a15.999485 15.999485 0 0 0 15.999485 15.999485z" fill="#5465CF" p-id="8179"></path></svg>