<?xml version="1.0" standalone="no"?><!DOCTYPE svg PUBLIC "-//W3C//DTD SVG 1.1//EN" "http://www.w3.org/Graphics/SVG/1.1/DTD/svg11.dtd"><svg t="1609730542596" class="icon" viewBox="0 0 1024 1024" version="1.1" xmlns="http://www.w3.org/2000/svg" p-id="3557" xmlns:xlink="http://www.w3.org/1999/xlink" width="400" height="400"><defs><style type="text/css"></style></defs><path d="M740.430769 360.369231L512 250.092308c-3.938462-1.969231-9.846154-3.938462-15.753846-3.938462-3.938462 0-7.876923 0-11.815385 1.969231L157.538462 380.061538c-11.815385 3.938462-19.692308 15.753846-21.661539 29.538462-1.969231 13.784615 5.907692 25.6 15.753846 31.507692L374.153846 575.015385c5.907692 3.938462 11.815385 5.907692 17.723077 5.907692 3.938462 0 9.846154-1.969231 13.784615-3.938462l332.8-153.6c11.815385-5.907692 19.692308-17.723077 19.692308-31.507692 1.969231-13.784615-5.907692-25.6-17.723077-31.507692z m-348.553846 185.107692L169.353846 411.569231l326.892308-131.938462 228.430769 110.276923-332.8 155.569231z" p-id="3558"></path><path d="M732.553846 472.615385l-25.6-11.815385c-7.876923-3.938462-19.692308 0-23.630769 7.876923-3.938462 5.907692-1.969231 13.784615 1.969231 19.692308l-293.415385 135.876923-187.076923-114.215385c7.876923-3.938462 11.815385-13.784615 7.876923-23.630769-3.938462-7.876923-15.753846-11.815385-23.630769-7.876923l-27.569231 13.784615c-5.907692 1.969231-9.846154 7.876923-9.846154 13.784616 0 5.907692 3.938462 11.815385 7.876923 15.753846l222.523077 133.907692c1.969231 1.969231 5.907692 1.969231 9.846154 1.969231 1.969231 0 3.938462 0 7.876923-1.969231l332.8-153.6c5.907692-1.969231 9.846154-7.876923 9.846154-15.753846 0-3.938462-3.938462-9.846154-9.846154-13.784615z" p-id="3559"></path><path d="M732.553846 551.384615l-25.6-11.815384c-7.876923-3.938462-19.692308 0-23.630769 7.876923-3.938462 5.907692-1.969231 13.784615 1.969231 19.692308l-293.415385 135.876923-187.076923-114.215385c7.876923-3.938462 11.815385-13.784615 7.876923-23.630769-3.938462-7.876923-15.753846-11.815385-23.630769-7.876923l-27.569231 13.784615c-5.907692 1.969231-9.846154 7.876923-9.846154 13.784615 0 5.907692 3.938462 11.815385 7.876923 15.753847l222.523077 133.907692c1.969231 1.969231 5.907692 1.969231 9.846154 1.969231 1.969231 0 3.938462 0 7.876923-1.969231l332.8-153.6c5.907692-1.969231 9.846154-7.876923 9.846154-15.753846 0-3.938462-3.938462-11.815385-9.846154-13.784616zM858.584615 659.692308h-25.6v-334.769231h25.6c9.846154 0 17.723077-7.876923 17.723077-17.723077s-7.876923-17.723077-17.723077-17.723077h-88.615384c-9.846154 0-17.723077 7.876923-17.723077 17.723077s7.876923 17.723077 17.723077 17.723077h25.6v336.738461h-25.6c-9.846154 0-17.723077 7.876923-17.723077 17.723077s7.876923 17.723077 17.723077 17.723077h88.615384c9.846154 0 17.723077-7.876923 17.723077-17.723077s-7.876923-19.692308-17.723077-19.692307z" p-id="3560"></path></svg>