<?xml version="1.0" standalone="no"?><!DOCTYPE svg PUBLIC "-//W3C//DTD SVG 1.1//EN" "http://www.w3.org/Graphics/SVG/1.1/DTD/svg11.dtd"><svg t="1642427673101" class="icon" viewBox="0 0 1024 1024" version="1.1" xmlns="http://www.w3.org/2000/svg" p-id="46332" xmlns:xlink="http://www.w3.org/1999/xlink" width="200" height="200"><defs><style type="text/css"></style></defs><path d="M862.12 512c0-32.46-23.9-59.42-55.02-64.24V132.06c16.86-1.26 30.2-15.34 30.2-32.52v-16.58c0-18-14.64-32.64-32.64-32.64H219.34c-18 0-32.64 14.64-32.64 32.64v16.58c0 17.18 13.34 31.26 30.2 32.52v315.7c-31.12 4.82-55.02 31.78-55.02 64.24 0 32.44 23.9 59.42 55.02 64.24v315.7c-16.86 1.26-30.2 15.36-30.2 32.54v16.56c0 18 14.64 32.64 32.64 32.64h585.32c18 0 32.64-14.64 32.64-32.64v-16.56c0-17.18-13.34-31.28-30.2-32.54V576.24c31.12-4.82 55.02-31.8 55.02-64.24zM206.7 99.54v-16.58c0-6.98 5.68-12.64 12.64-12.64h585.32a12.64 12.64 0 0 1 12.64 12.64v16.58c0 6.96-5.66 12.64-12.64 12.64H219.34c-6.96 0-12.64-5.68-12.64-12.64z m580.4 476.7v315.58h-45.18v-136.46a10 10 0 0 0-6.84-9.48l-23.66-7.86a197.36 197.36 0 0 0-2.32-19.52 194.52 194.52 0 0 0-4.2-19.22l19.78-15.16a10.02 10.02 0 0 0 2.62-12.88l-35.74-63.02a9.992 9.992 0 0 0-12.38-4.36L656 613.04c-9.08-9.42-19.12-17.96-29.92-25.46l5.42-24.34c1.08-4.88-1.6-9.8-6.26-11.54l-67.92-25.32c-4.68-1.74-9.94 0.22-12.3 4.62l-11.8 21.9c-13.06-1.38-26.24-1.46-39.34-0.26l-11.48-22.12a10.002 10.002 0 0 0-12.22-4.8l-68.28 24.26a9.994 9.994 0 0 0-6.44 11.44l5.02 24.38a198.566 198.566 0 0 0-30.3 25.06l-23-9.54a9.992 9.992 0 0 0-12.46 4.16L298 667.96a9.968 9.968 0 0 0 2.42 12.9l19.52 15.46a197.044 197.044 0 0 0-7.12 38.66l-23.74 7.46c-4.16 1.32-7 5.18-7 9.54v139.84h-45.18V576.24c31.12-4.82 55.02-31.8 55.02-64.24 0-32.46-23.9-59.42-55.02-64.24V132.18h45.18v142.26c0 4.32 2.76 8.14 6.84 9.5l23.66 7.84c0.44 6.48 1.22 13.04 2.32 19.52 1.08 6.5 2.48 12.94 4.2 19.24l-19.78 15.16a9.988 9.988 0 0 0-2.62 12.86l35.74 63.02a10.048 10.048 0 0 0 12.4 4.38l23.18-9.2c9.1 9.44 19.12 17.98 29.9 25.48l-5.42 24.32c-1.08 4.88 1.6 9.82 6.28 11.56l67.9 25.3c4.7 1.74 9.94-0.24 12.3-4.62l11.8-21.9c13.06 1.38 26.24 1.46 39.34 0.26l11.48 22.12c1.78 3.4 5.24 5.38 8.88 5.38 1.12 0 2.24-0.18 3.36-0.56l68.26-24.28a9.972 9.972 0 0 0 6.44-11.44L623.52 444a198.162 198.162 0 0 0 30.3-25.06l23.02 9.56c4.6 1.9 9.92 0.12 12.44-4.18L726 361.84c2.54-4.3 1.5-9.8-2.42-12.9l-19.52-15.44c3.66-12.64 6.04-25.6 7.12-38.68l23.74-7.48c4.16-1.32 7-5.18 7-9.54V132.18h45.18v315.58c-31.12 4.82-55.02 31.78-55.02 64.24 0 32.44 23.9 59.42 55.02 64.24z m-449.38 108.64l-18.06-14.3 27.88-47.46 21.3 8.84c3.88 1.62 8.34 0.64 11.18-2.46a178.68 178.68 0 0 1 36.9-30.52 10.03 10.03 0 0 0 4.52-10.52l-4.64-22.54 51.86-18.44 10.64 20.46c1.94 3.72 5.98 5.86 10.14 5.3 15.94-2.02 32.06-1.92 47.94 0.34 4.14 0.58 8.2-1.48 10.2-5.16l10.92-20.26 51.58 19.24-5.02 22.52a10.04 10.04 0 0 0 4.36 10.58c13.52 8.7 25.8 19.14 36.46 31.04a9.992 9.992 0 0 0 11.12 2.62l21.46-8.5 27.14 47.88-18.28 14.02a9.98 9.98 0 0 0-3.48 10.9c2.36 7.58 4.22 15.42 5.54 23.34 1.34 7.98 2.16 16.02 2.42 23.9a9.978 9.978 0 0 0 6.84 9.14l23.28 7.74v129.24H302.08v-132.5l23.26-7.3c4-1.26 6.8-4.88 7-9.08 0.74-16 3.68-31.84 8.68-47.1 1.3-3.98 0-8.36-3.3-10.96z m348.56-339.94l18.06 14.28-27.88 47.46-21.3-8.84c-3.88-1.6-8.34-0.62-11.18 2.46a179.19 179.19 0 0 1-36.9 30.54 9.988 9.988 0 0 0-4.52 10.5l4.64 22.56-51.86 18.42-10.64-20.46a10.06 10.06 0 0 0-10.14-5.3c-15.92 2.02-32.06 1.92-47.94-0.32a10 10 0 0 0-10.2 5.16l-10.9 20.24-51.6-19.22 5.02-22.52c0.9-4.1-0.82-8.32-4.36-10.58a179.92 179.92 0 0 1-36.46-31.06 10.02 10.02 0 0 0-11.12-2.6l-21.44 8.5-27.16-47.88 18.3-14.02a10.012 10.012 0 0 0 3.46-10.9 179.6 179.6 0 0 1-5.54-23.36c-1.34-7.98-2.16-16.02-2.42-23.9a10.024 10.024 0 0 0-6.84-9.16l-23.28-7.72V132.18h419.84v138.28l-23.26 7.34c-4 1.26-6.8 4.88-7 9.06-0.76 16-3.68 31.84-8.68 47.12-1.3 3.98 0.02 8.36 3.3 10.96zM181.88 512c0-24.82 20.2-45.02 45.02-45.02 24.82 0 45.02 20.2 45.02 45.02s-20.2 45.02-45.02 45.02c-24.82 0-45.02-20.2-45.02-45.02z m635.42 412.48v16.56c0 6.96-5.66 12.64-12.64 12.64H219.34c-6.96 0-12.64-5.68-12.64-12.64v-16.56c0-6.98 5.68-12.66 12.64-12.66h585.32c6.98 0 12.64 5.68 12.64 12.66z m-20.2-367.46c-24.82 0-45.02-20.2-45.02-45.02s20.2-45.02 45.02-45.02c24.82 0 45.02 20.2 45.02 45.02s-20.2 45.02-45.02 45.02z" fill="#23130D" p-id="46333"></path><path d="M817.3 924.48v16.56c0 6.96-5.66 12.64-12.64 12.64H219.34c-6.96 0-12.64-5.68-12.64-12.64v-16.56c0-6.98 5.68-12.66 12.64-12.66h585.32c6.98 0 12.64 5.68 12.64 12.66z" fill="#E1E1E5" p-id="46334"></path><path d="M817.3 924.48v16.56c0 6.96-5.66 12.64-12.64 12.64H219.34c-6.96 0-12.64-5.68-12.64-12.64v-16.56c0-0.74 0.06-1.48 0.2-2.18 1.04 5.92 6.24 10.46 12.44 10.46h585.32c6.22 0 11.4-4.54 12.44-10.46 0.14 0.7 0.2 1.44 0.2 2.18z" opacity=".2" p-id="46335"></path><path d="M817.3 82.96v16.58c0 6.96-5.66 12.64-12.64 12.64H219.34c-6.96 0-12.64-5.68-12.64-12.64v-16.58c0-6.98 5.68-12.64 12.64-12.64h585.32a12.64 12.64 0 0 1 12.64 12.64z" fill="#E1E1E5" p-id="46336"></path><path d="M842.12 512c0 24.82-20.2 45.02-45.02 45.02-24.82 0-45.02-20.2-45.02-45.02s20.2-45.02 45.02-45.02c24.82 0 45.02 20.2 45.02 45.02z" fill="#3594BF" p-id="46337"></path><path d="M271.92 512c0 24.82-20.2 45.02-45.02 45.02-24.82 0-45.02-20.2-45.02-45.02s20.2-45.02 45.02-45.02c24.82 0 45.02 20.2 45.02 45.02z" fill="#F9C139" p-id="46338"></path><path d="M236.4 556c-3.06 0.68-6.24 1.02-9.5 1.02-24.82 0-45.02-20.2-45.02-45.02s20.2-45.02 45.02-45.02c3.26 0 6.44 0.34 9.5 1.02-20.28 4.36-35.52 22.44-35.52 44s15.24 39.64 35.52 44zM806.6 556c-3.06 0.68-6.24 1.02-9.5 1.02-24.82 0-45.02-20.2-45.02-45.02s20.2-45.02 45.02-45.02c3.26 0 6.44 0.34 9.5 1.02-20.28 4.36-35.52 22.44-35.52 44s15.24 39.64 35.52 44z" opacity=".2" p-id="46339"></path><path d="M698.64 754.84a9.978 9.978 0 0 1-6.84-9.14c-0.26-7.88-1.08-15.92-2.42-23.9-1.32-7.92-3.18-15.76-5.54-23.34-1.24-4 0.14-8.36 3.48-10.9l18.28-14.02-27.14-47.88-21.46 8.5c-3.88 1.54-8.32 0.5-11.12-2.62a178.932 178.932 0 0 0-36.46-31.04 10.04 10.04 0 0 1-4.36-10.58l5.02-22.52-51.58-19.24-10.92 20.26c-2 3.68-6.06 5.74-10.2 5.16-15.88-2.26-32-2.36-47.94-0.34-4.16 0.56-8.2-1.58-10.14-5.3l-10.64-20.46-51.86 18.44 4.64 22.54c0.84 4.1-0.96 8.3-4.52 10.52a178.68 178.68 0 0 0-36.9 30.52 9.944 9.944 0 0 1-11.18 2.46l-21.3-8.84-27.88 47.46 18.06 14.3c3.3 2.6 4.6 6.98 3.3 10.96a177.652 177.652 0 0 0-8.68 47.1 10.02 10.02 0 0 1-7 9.08l-23.26 7.3v132.5h419.84v-129.24l-23.28-7.74z m-67.68 7.76c-5.54 0-10-4.48-10-10 0-60.08-48.88-108.96-108.96-108.96s-108.94 48.88-108.94 108.96c0 5.52-4.48 10-10 10s-10-4.48-10-10c0-71.1 57.84-128.96 128.94-128.96s128.96 57.86 128.96 128.96c0 5.52-4.48 10-10 10z" fill="#3594BF" p-id="46340"></path><path d="M691.66 286.86c0.2-4.18 3-7.8 7-9.06l23.26-7.34V132.18H302.08v135.04l23.28 7.72c3.96 1.32 6.7 4.98 6.84 9.16 0.26 7.88 1.08 15.92 2.42 23.9a179.6 179.6 0 0 0 5.54 23.36c1.24 4-0.14 8.34-3.46 10.9l-18.3 14.02 27.16 47.88 21.44-8.5a10.02 10.02 0 0 1 11.12 2.6 179.92 179.92 0 0 0 36.46 31.06 9.982 9.982 0 0 1 4.36 10.58l-5.02 22.52 51.6 19.22 10.9-20.24a10 10 0 0 1 10.2-5.16 180.63 180.63 0 0 0 47.94 0.32c4.14-0.52 8.2 1.6 10.14 5.3l10.64 20.46 51.86-18.42-4.64-22.56c-0.84-4.1 0.96-8.3 4.52-10.5a179.19 179.19 0 0 0 36.9-30.54 10.01 10.01 0 0 1 11.18-2.46l21.3 8.84 27.88-47.46-18.06-14.28a10.026 10.026 0 0 1-3.3-10.96c5-15.28 7.92-31.12 8.68-47.12zM512 400.36c-71.1 0-128.94-57.86-128.94-128.96 0-5.52 4.48-10 10-10s10 4.48 10 10c0 60.08 48.88 108.96 108.94 108.96 60.08 0 108.96-48.88 108.96-108.96 0-5.52 4.46-10 10-10 5.52 0 10 4.48 10 10 0 71.1-57.86 128.96-128.96 128.96z" fill="#F9C139" p-id="46341"></path><path d="M698.64 754.84a9.978 9.978 0 0 1-6.84-9.14c-0.26-7.88-1.08-15.92-2.42-23.9-1.32-7.92-3.18-15.76-5.54-23.34-1.24-4 0.14-8.36 3.48-10.9l18.28-14.02-27.14-47.88-21.46 8.5a9.992 9.992 0 0 1-11.12-2.62 178.932 178.932 0 0 0-36.46-31.04 10.04 10.04 0 0 1-4.36-10.58l5.02-22.52-51.58-19.24-10.92 20.26a10.072 10.072 0 0 1-8.82 5.26c-0.46 0-0.92-0.04-1.38-0.1a179.81 179.81 0 0 0-47.94-0.34 9.974 9.974 0 0 1-10.14-5.3l-10.64-20.46-51.86 18.44 4.64 22.54c0.84 4.1-0.96 8.3-4.52 10.52a178.68 178.68 0 0 0-36.9 30.52 9.948 9.948 0 0 1-7.34 3.24c-1.28 0-2.6-0.26-3.84-0.78l-21.3-8.84-27.88 47.46 18.06 14.3c3.3 2.6 4.6 6.98 3.3 10.96a177.652 177.652 0 0 0-8.68 47.1 10.02 10.02 0 0 1-7 9.08l-23.26 7.3v132.5h419.84v-129.24l-23.28-7.74z m13.28 126.98H312.08v-115.16l16.26-5.1c7.98-2.52 13.6-9.8 13.98-18.16a168.12 168.12 0 0 1 8.2-44.46c2.6-7.94-0.06-16.76-6.6-21.9l-11.24-8.9 19.08-32.44 13.22 5.48c2.46 1.04 5.06 1.56 7.7 1.56 5.58 0 10.94-2.36 14.68-6.46a169.394 169.394 0 0 1 34.86-28.82c7.06-4.4 10.68-12.84 9.02-21.02l-2.9-14.02 35.46-12.6 6.64 12.74a19.896 19.896 0 0 0 17.68 10.76c0.88 0 1.78-0.06 2.58-0.16 7.12-0.9 14.36-1.36 21.5-1.36 7.94 0 15.94 0.56 23.8 1.68 0.9 0.14 1.84 0.2 2.76 0.2 7.34 0 14.1-4.02 17.62-10.52l6.78-12.58 35.26 13.14-3.12 14.04c-1.8 8.12 1.7 16.6 8.7 21.14 12.82 8.24 24.4 18.1 34.44 29.32a20.024 20.024 0 0 0 22.24 5.24l13.38-5.3 18.54 32.74-11.34 8.7c-6.64 5.06-9.44 13.82-6.96 21.84 2.22 7.12 3.98 14.54 5.22 22.02 1.28 7.58 2.04 15.18 2.28 22.58 0.28 8.34 5.8 15.7 13.68 18.28l16.44 5.48v112.02zM691.66 286.86c0.2-4.18 3-7.8 7-9.06l23.26-7.34V132.18H302.08v135.04l23.28 7.72c3.96 1.32 6.7 4.98 6.84 9.16 0.26 7.88 1.08 15.92 2.42 23.9a179.6 179.6 0 0 0 5.54 23.36c1.24 4-0.14 8.34-3.46 10.9l-18.3 14.02 27.16 47.88 21.44-8.5a10.044 10.044 0 0 1 11.12 2.6 179.92 179.92 0 0 0 36.46 31.06 9.982 9.982 0 0 1 4.36 10.58l-5.02 22.52 51.6 19.22 10.9-20.24a10 10 0 0 1 10.2-5.16 181.048 181.048 0 0 0 47.94 0.32c0.42-0.06 0.84-0.08 1.24-0.08 3.7 0 7.16 2.06 8.9 5.38l10.64 20.46 51.86-18.42-4.64-22.56c-0.84-4.1 0.96-8.3 4.52-10.5a179.19 179.19 0 0 0 36.9-30.54 10.004 10.004 0 0 1 11.18-2.46l21.3 8.84 27.88-47.46-18.06-14.28a10.026 10.026 0 0 1-3.3-10.96c5-15.28 7.92-31.12 8.68-47.12z m-11.58 65.92l11.22 8.88-19.06 32.44-13.26-5.5a19.98 19.98 0 0 0-22.34 4.92 169.586 169.586 0 0 1-34.82 28.82c-7.1 4.38-10.74 12.82-9.06 21.02l2.9 14.02-35.46 12.6-6.64-12.76a20.014 20.014 0 0 0-20.26-10.58c-7.12 0.9-14.36 1.36-21.54 1.36-7.94 0-15.92-0.56-23.76-1.66a19.956 19.956 0 0 0-20.38 10.32l-6.78 12.56-35.26-13.12 3.12-14.06c1.8-8.16-1.72-16.66-8.7-21.12a170.344 170.344 0 0 1-34.46-29.36 20.014 20.014 0 0 0-22.22-5.2l-13.36 5.3-18.56-32.74 11.4-8.74c6.6-5.08 9.38-13.84 6.92-21.76-2.24-7.28-4-14.7-5.24-22.08-1.28-7.58-2.04-15.18-2.28-22.58-0.28-8.32-5.78-15.68-13.7-18.32l-16.42-5.44V142.18h399.84v120.94l-16.26 5.14c-7.98 2.52-13.6 9.8-13.98 18.12a169.138 169.138 0 0 1-8.2 44.5c-2.6 7.92 0.06 16.72 6.6 21.9z" opacity=".2" p-id="46342"></path><path d="M640.96 271.4c0 71.1-57.86 128.96-128.96 128.96s-128.94-57.86-128.94-128.96c0-5.52 4.48-10 10-10s10 4.48 10 10c0 60.08 48.88 108.96 108.94 108.96 60.08 0 108.96-48.88 108.96-108.96 0-5.52 4.46-10 10-10 5.52 0 10 4.48 10 10zM640.96 752.6c0 5.52-4.48 10-10 10-5.54 0-10-4.48-10-10 0-60.08-48.88-108.96-108.96-108.96s-108.94 48.88-108.94 108.96c0 5.52-4.48 10-10 10s-10-4.48-10-10c0-71.1 57.84-128.96 128.94-128.96s128.96 57.86 128.96 128.96z" fill="#FFFFFF" p-id="46343"></path><path d="M817.3 82.98v16.56c0 6.96-5.66 12.64-12.64 12.64H219.34c-6.96 0-12.64-5.68-12.64-12.64v-16.56c0-0.74 0.06-1.48 0.2-2.18 1.04 5.92 6.24 10.46 12.44 10.46h585.32c6.22 0 11.4-4.54 12.44-10.46 0.14 0.7 0.2 1.44 0.2 2.18z" opacity=".2" p-id="46344"></path></svg>