<?xml version="1.0" standalone="no"?><!DOCTYPE svg PUBLIC "-//W3C//DTD SVG 1.1//EN" "http://www.w3.org/Graphics/SVG/1.1/DTD/svg11.dtd"><svg t="1642428640215" class="icon" viewBox="0 0 1024 1024" version="1.1" xmlns="http://www.w3.org/2000/svg" p-id="9634" xmlns:xlink="http://www.w3.org/1999/xlink" width="16" height="16"><defs><style type="text/css"></style></defs><path d="M198.755097 413.729032c0-30.901677 38.647742-44.890839 58.417548-21.157161l106.743742 128.099097V413.729032a33.032258 33.032258 0 1 1 66.064516 0v198.193549c0 30.885161-38.631226 44.890839-58.401032 21.140645l-106.760258-128.099097v106.958452a33.032258 33.032258 0 1 1-66.064516 0zM743.225806 445.935484a82.580645 82.580645 0 0 1 82.580646 82.580645v82.580645a33.032258 33.032258 0 1 1-66.064517 0v-82.580645a16.516129 16.516129 0 0 0-33.032258 0v82.580645a33.032258 33.032258 0 0 1-30.554838 32.949678L693.677419 644.129032a33.032258 33.032258 0 0 1-32.949677-30.554838L660.645161 611.096774v-82.580645a16.516129 16.516129 0 0 0-32.916645-1.932387L627.612903 528.516129v82.580645a33.032258 33.032258 0 0 1-65.981935 2.47742L561.548387 611.096774v-82.580645a82.580645 82.580645 0 0 1 132.145548-66.064516c13.774452-10.372129 30.93471-16.516129 49.531871-16.516129z m-247.741935 49.548387a33.032258 33.032258 0 1 1 0 66.064516 33.032258 33.032258 0 0 1 0-66.064516z" fill="#707070" p-id="9635"></path></svg>