<?xml version="1.0" standalone="no"?><!DOCTYPE svg PUBLIC "-//W3C//DTD SVG 1.1//EN" "http://www.w3.org/Graphics/SVG/1.1/DTD/svg11.dtd"><svg t="1609730790512" class="icon" viewBox="0 0 1024 1024" version="1.1" xmlns="http://www.w3.org/2000/svg" p-id="7254" xmlns:xlink="http://www.w3.org/1999/xlink" width="400" height="400"><defs><style type="text/css"></style></defs><path d="M60.933333 412.533333c158.666667 92.666667 317.333333 185.333333 475.866667 278.266667 13.333333 7.866667 25.2 8.533333 39.333333 2.133333C764 607.733333 952 522.933333 1140.133333 438c51.333333-23.2 102.533333-46.4 153.866667-69.466667 11.733333-5.333333 19.2-13.2 19.733333-26.533333 0.533333-14.133333-6.533333-23.2-18.933333-28.8-2.533333-1.2-4.933333-2.4-7.333333-3.6-97.066667-47.066667-194.266667-94.266667-291.333334-141.333333-63.2-30.666667-126.4-61.333333-189.6-91.866667-5.066667-2.4-10.666667-3.733333-16.266666-5.6-6.4 2-12.4 3.466667-18.266667 5.733333-115.2 45.466667-230.4 91.066667-345.733333 136.8-121.066667 47.866667-242.266667 95.866667-363.333334 144-5.066667 2-10.4 5.466667-13.733333 9.733334-12.133333 15.2-6.8 34.533333 11.733333 45.466666zM102 382.666667c143.2-56.8 286.4-113.6 429.6-170.266667 83.466667-33.066667 167.066667-66 250.533333-99.333333 5.2-2.133333 9.333333-2.266667 14.533334 0.266666 101.733333 49.466667 203.466667 98.8 305.333333 148.266667 49.6 24.133333 99.333333 48.133333 148.933333 72.266667 3.466667 1.6 6.666667 3.6 12 6.266666-4 2-6.266667 3.333333-8.666666 4.4-229.333333 103.6-458.666667 207.066667-687.866667 310.8-6 2.8-10.4 2.266667-15.866667-0.933333-149.733333-87.466667-299.333333-174.8-449.066666-262.266667-2.266667-1.333333-4.533333-2.933333-8.4-5.333333 4-1.866667 6.4-3.066667 8.933333-4.133333zM64.266667 558.933333c159.333333 93.066667 318.666667 186.133333 478 279.466667 12.533333 7.333333 24 7.733333 37.2 1.866667C672 798.266667 764.666667 756.533333 857.333333 714.666667c147.466667-66.533333 294.8-133.2 442.266667-199.6 11.733333-5.333333 18.4-14.266667 18.8-26.533334 0.4-12-5.466667-21.466667-16.533333-27.2-12.4-6.4-24.666667-13.066667-37.066667-19.333333-2.266667-1.2-5.6-2.266667-7.6-1.466667-10.4 3.733333-20.533333 8.133333-32 12.933334l50.666667 27.866666c-4.266667 2.133333-7.066667 3.733333-10 4.933334C1037.466667 587.2 809.066667 688.133333 580.8 789.333333c-10.8 4.8-18.8 4.933333-29.333333-1.066666-147.2-84-294.666667-167.6-442.133334-251.333334-2.4-1.333333-4.666667-3.066667-8.8-5.733333 19.333333-5.866667 36.4-11.2 55.733334-17.066667-15.066667-7.466667-27.866667-14.133333-41.066667-20.266666-2.666667-1.2-6.4-0.933333-9.333333-0.266667-11.6 2.933333-23.066667 6.8-34.666667 9.6-13.866667 3.333333-22.4 11.6-24.133333 25.466667-1.6 13.866667 5.466667 23.466667 17.2 30.266666zM1309.333333 575.733333c-10.933333-6.666667-22.666667-12.266667-34-18.133333-1.333333-0.666667-3.333333-1.466667-4.666666-0.933333-10.8 4-21.466667 8.4-33.466667 13.2l38.533333 27.333333c-4 2-6.4 3.2-8.8 4.266667-118.533333 51.6-237.066667 103.066667-355.6 154.533333-112 48.666667-224.133333 97.2-336 146.133333-6.8 2.933333-11.866667 2.4-18.266666-1.066666C404.8 816.4 252.133333 732 99.6 647.333333c-2.533333-1.333333-4.8-3.066667-8.666667-5.333333 14.266667-7.066667 27.2-13.333333 41.866667-20.533333-10.266667-6.266667-18.933333-11.733333-28-16.666667-1.466667-0.8-4.266667 0-6.133333 0.666667-9.466667 3.6-18.8 7.333333-28.266667 11.066666-11.066667 4.4-18 12.133333-19.066667 24.4-1.066667 13.066667 4 22.666667 15.466667 29.333334 14.933333 8.533333 29.733333 17.466667 44.666667 26.133333C256.933333 781.333333 402.4 866.266667 547.733333 951.333333c11.066667 6.533333 22 7.066667 33.6 1.733334 23.333333-10.666667 46.8-21.2 70.266667-31.733334 178.133333-80.4 356.133333-160.8 534.266667-241.2 39.6-17.866667 79.2-35.866667 118.8-53.733333 10.4-4.666667 16.4-12.666667 17.333333-24 0.933333-11.066667-2.933333-20.8-12.666667-26.666667z" fill="#515151" p-id="7255"></path></svg>