<?xml version="1.0" standalone="no"?><!DOCTYPE svg PUBLIC "-//W3C//DTD SVG 1.1//EN" "http://www.w3.org/Graphics/SVG/1.1/DTD/svg11.dtd"><svg t="1609663913284" class="icon" viewBox="0 0 1024 1024" version="1.1" xmlns="http://www.w3.org/2000/svg" p-id="17038" xmlns:xlink="http://www.w3.org/1999/xlink" width="400" height="400"><defs><style type="text/css"></style></defs><path d="M855 654H176V156h679v498z m-45.267-452.727H221.267v407.454h588.466V201.273z" fill="#333333" p-id="17039"></path><path d="M733.744 710.04a0.2 0.2 0 0 1 0.115 0.036l112.025 79.26a0.2 0.2 0 0 1 0 0.327l-112.025 79.26a0.2 0.2 0 0 1-0.315-0.163v-53.38H282.456v53.38a0.2 0.2 0 0 1-0.315 0.164l-112.025-79.26a0.2 0.2 0 0 1 0-0.327l112.025-79.26a0.2 0.2 0 0 1 0.315 0.163v59.817h451.088V710.24c0-0.11 0.09-0.2 0.2-0.2z" fill="#333333" p-id="17040"></path></svg>